<svg width="33" height="22" viewBox="0 0 33 22" fill="none" xmlns="http://www.w3.org/2000/svg">
<g id="americanexpress-color-large">
<rect id="Rectangle" y="0.000172615" width="32" height="21.3333" rx="4" fill="white"/>
<g id="amex">
<path id="Path" d="M5.92 11.9334V17.3734H11.4267L12 16.5601L12.56 17.3734H15.9267V16.1468H16.3C16.6389 16.1497 16.9762 16.1003 17.3 16.0001V17.3734H19.5867V16.4001L20.36 17.3734H30.7733C31.2014 17.3809 31.6225 17.2652 31.9867 17.0401V19.3335C31.6816 20.5149 30.6136 21.3386 29.3933 21.3334H2.66667C1.19391 21.3334 0 20.1395 0 18.6668V10.2668H1.52L1.83333 9.45345H2.58L2.88667 10.2668H15.1133V9.29345L15.8867 10.2668H19.0933V9.77345C19.5636 10.1082 20.1297 10.2813 20.7067 10.2668H22.62L22.9267 9.45345H23.6733L24 10.2668H27.2667V9.21345L27.9333 10.2668H30.1867V4.82678H27.7933V5.93345L27.08 4.82678H24.9867V6.22678L24.32 4.82678H20.76C20.1577 4.80933 19.5683 5.00268 19.0933 5.37345V4.82678H7.33333L6.93333 6.00012L6.53333 4.80012H3.86667V6.20012L3.24 4.80012H1.06667L0 7.33345V2.66678C0 1.19402 1.19391 0.000115164 2.66667 0.000115164H29.3933C30.6185 -0.0112097 31.6937 0.813784 32 2.00012V11.9334H12.5733L12 12.7334L11.44 11.9334H5.92Z" fill="#296DB6"/>
<path id="Shape" fill-rule="evenodd" clip-rule="evenodd" d="M14.2161 12.8001H16.2895V12.7735C16.6347 12.7444 16.9758 12.8652 17.2258 13.1051C17.4759 13.3449 17.6108 13.6806 17.5961 14.0268C17.6047 14.3771 17.4646 14.7147 17.2106 14.956C16.9565 15.1973 16.6122 15.3199 16.2628 15.2935H15.1295V16.5335H14.2161V12.8001ZM9.80906 13.5735V12.7735H6.78906V16.5335H9.80906V15.7335H7.69573V15.0668H9.76906V14.2535H7.69573V13.5868L9.80906 13.5735ZM12.536 14.6668L14.0427 12.8001H12.936L12.0027 13.9601L11.076 12.7735H9.94271L11.4694 14.6668L10.0027 16.5335H11.096L12.0027 15.3335L12.9094 16.5468H14.056L12.536 14.6668ZM16.2102 14.5201H15.1302V13.5735H16.2102C16.4643 13.5735 16.6702 13.7794 16.6702 14.0335C16.6702 14.2875 16.4643 14.4935 16.2102 14.4935V14.5201ZM21.45 13.8601C21.5273 14.5155 21.0587 15.1095 20.4033 15.1868L21.6633 16.5335H20.5233L19.4033 15.2001H18.99V16.5335H18.0833V12.8135H20.1233C20.7787 12.7361 21.3727 13.2047 21.45 13.8601ZM20.0429 14.4401H18.9896V13.5735H20.0429C20.1614 13.558 20.2808 13.5947 20.3703 13.6739C20.4598 13.7532 20.5106 13.8673 20.5096 13.9868C20.5129 14.107 20.4628 14.2226 20.3727 14.3024C20.2826 14.3821 20.1619 14.4179 20.0429 14.4001V14.4401ZM24.9083 12.8135V13.6135L22.795 13.5868V14.2535H24.855V15.0668H22.795V15.7335H24.9083V16.5335H21.875V12.8135H24.9083ZM27.4235 14.2801H26.5501C26.4151 14.3073 26.2771 14.2503 26.2006 14.1359C26.124 14.0214 26.124 13.8721 26.2006 13.7577C26.2771 13.6433 26.4151 13.5863 26.5501 13.6135H28.1701L28.5301 12.8135H26.5768C26.2444 12.7749 25.9116 12.8818 25.6639 13.1066C25.4161 13.3314 25.2774 13.6523 25.2835 13.9868C25.2632 14.2981 25.3828 14.6021 25.6098 14.8162C25.8367 15.0302 26.1472 15.1319 26.4568 15.0935H27.3368C27.4718 15.0663 27.6098 15.1233 27.6864 15.2377C27.7629 15.3521 27.7629 15.5014 27.6864 15.6159C27.6098 15.7303 27.4718 15.7873 27.3368 15.7601H25.3901V16.5601H27.3368C27.6728 16.5876 28.0042 16.4684 28.2457 16.2333C28.4872 15.9981 28.6153 15.67 28.5968 15.3335C28.6136 15.0253 28.4919 14.7258 28.2648 14.5168C28.0378 14.3078 27.7292 14.2112 27.4235 14.2535V14.2801ZM31.6415 13.6135H30.0215L30.0015 13.5868C29.8665 13.5597 29.7285 13.6166 29.6519 13.731C29.5753 13.8455 29.5753 13.9948 29.6519 14.1092C29.7285 14.2236 29.8665 14.2806 30.0015 14.2535H30.9081C31.3693 14.206 31.8093 14.4582 32.0015 14.8801V15.7735C31.8179 16.2817 31.3125 16.6003 30.7748 16.5468H28.8615V15.7468H30.7881C30.9231 15.7739 31.0612 15.717 31.1377 15.6025C31.2143 15.4881 31.2143 15.3388 31.1377 15.2244C31.0612 15.1099 30.9231 15.053 30.7881 15.0801H29.9281C29.6186 15.1185 29.308 15.0169 29.0811 14.8028C28.8542 14.5888 28.7346 14.2847 28.7548 13.9735C28.7487 13.6389 28.8874 13.3181 29.1352 13.0933C29.383 12.8685 29.7158 12.7616 30.0481 12.8001H32.0015L31.6415 13.6135Z" fill="#296DB6"/>
<path id="Shape_2" fill-rule="evenodd" clip-rule="evenodd" d="M16.9656 6.85345C16.9803 7.45444 16.5358 7.96815 15.939 8.04011L17.1923 9.42678H16.059L14.939 8.09345H14.5256V9.42678H13.599V5.66678H15.6323C15.972 5.62223 16.3143 5.72752 16.5702 5.9553C16.8262 6.18309 16.9705 6.51086 16.9656 6.85345ZM2.82 5.66678H1.63333L0 9.42678H0.986667L1.33333 8.66678H3.08667L3.40667 9.45345H4.43333L2.82 5.66678ZM1.58594 7.90678L1.9526 7.02678L2.1926 6.44011L2.4326 7.02678L2.7926 7.90678H1.58594ZM7.06677 7.84011L7.8001 5.66678H9.2601V9.42678H8.3801V6.96011V6.38678L8.20677 6.96011L7.33344 9.42678H6.53344L5.6801 6.96011L5.49344 6.38678V6.96011V9.42678H4.60677V5.66678H6.0801L6.82677 7.84011L6.94677 8.25345L7.06677 7.84011ZM13 6.46678V5.66678H10V9.42678H13V8.62678H10.8867V7.96011H12.9467V7.14678H10.8867V6.48011L13 6.46678ZM15.5794 7.29345H14.526V6.46678H15.5794C15.6975 6.45358 15.8156 6.491 15.9045 6.56977C15.9935 6.64855 16.0449 6.76131 16.046 6.88012C16.0493 7.00037 15.9992 7.11592 15.9092 7.19568C15.8191 7.27545 15.6984 7.31124 15.5794 7.29345ZM17.4062 9.42678V5.66678H18.3196V9.42678H17.4062ZM20.7409 6.48011H21.7209V5.66678H20.6675C20.1717 5.63544 19.687 5.82258 19.3408 6.17899C18.9947 6.5354 18.8217 7.02539 18.8675 7.52011V7.57345C18.8118 8.06109 18.9739 8.54849 19.3106 8.90568C19.6472 9.26286 20.1241 9.45351 20.6142 9.42678H20.6675L21.0342 8.62678H20.7342C20.4575 8.641 20.1888 8.53157 20.0008 8.3281C19.8128 8.12463 19.7249 7.84814 19.7609 7.57345V7.52011C19.7292 7.24756 19.819 6.97487 20.0065 6.77454C20.194 6.5742 20.4602 6.46652 20.7342 6.48011H20.7409ZM22.7279 5.66678H23.9279L25.5346 9.45345H24.5079L24.1879 8.66678H22.4079L22.0879 9.42678H21.1146L22.7279 5.66678ZM22.7005 7.90678L23.0472 7.02678L23.2872 6.44011L23.5139 7.02678L23.8739 7.90678H22.7005ZM28.4057 7.66678V5.66678H29.3324V9.42678H28.2324L26.8391 7.30678L26.5991 6.89345V7.33345V9.45345H25.7057V5.69345H26.8191L28.1524 7.69345L28.4057 8.12011V7.66678Z" fill="#296DB6"/>
</g>
</g>
</svg>
