<svg width="145" height="33" viewBox="0 0 145 33" fill="none" xmlns="http://www.w3.org/2000/svg">
<path fill-rule="evenodd" clip-rule="evenodd" d="M1.84341 8.19534H14.0768C15.3813 8.19534 17.142 8.97551 18.5553 10.4856C19.9458 11.9714 20.9341 14.0986 20.7815 16.6928C20.5567 20.5148 18.0285 22.9068 15.8094 24.2176C14.635 24.9113 13.2078 25.121 11.6845 25.121H7.37358C6.91082 25.121 6.53568 25.4962 6.53568 25.9589C6.53568 26.4217 6.91082 26.7968 7.37358 26.7968H11.6845C13.3283 26.7968 15.1093 26.5775 16.6617 25.6604C19.1226 24.2068 22.1834 21.3989 22.4544 16.7912C22.637 13.6876 21.4467 11.1226 19.7789 9.34049C18.1338 7.58276 15.9564 6.51953 14.0768 6.51953H1.67583C0.84286 6.51953 0.167603 7.19479 0.167603 8.02776V29.143C0.167603 29.6057 0.542745 29.9809 1.00551 29.9809C1.46827 29.9809 1.84341 29.6057 1.84341 29.143V8.19534Z" fill="#624BFF"/>
<path fill-rule="evenodd" clip-rule="evenodd" d="M0 3.8379C0 3.37514 0.375143 3 0.837905 3H13.2389L13.2514 3.00009C15.2658 3.03016 18.2835 3.69889 20.8869 5.6138C23.5241 7.55362 25.6911 10.7424 25.9737 15.6884C26.2369 20.2943 24.4958 23.6251 22.0949 25.9168C19.7194 28.1843 16.7221 29.4166 14.431 29.9377C13.6764 30.1093 12.9225 30.1481 12.2121 30.1481H4.18952C3.72676 30.1481 3.35162 29.773 3.35162 29.3102V10.5411C3.35162 10.0784 3.72676 9.70324 4.18952 9.70324C4.65229 9.70324 5.02743 10.0784 5.02743 10.5411V28.4723H12.2121C12.8689 28.4723 13.4808 28.4352 14.0594 28.3036C16.1395 27.8305 18.8362 26.7107 20.9378 24.7046C23.0142 22.7226 24.5334 19.8583 24.3006 15.784C24.047 11.3454 22.1361 8.61296 19.8939 6.96375C17.6206 5.29161 14.9609 4.7029 13.2325 4.67581H0.837905C0.375143 4.67581 0 4.30067 0 3.8379Z" fill="#624BFF"/>
<path fill-rule="evenodd" clip-rule="evenodd" d="M6.70325 11.0442C6.70325 10.3963 7.22845 9.87109 7.87631 9.87109H12.7868L12.837 9.87718C13.8928 10.0052 15.316 10.478 16.4914 11.5015C17.6937 12.5485 18.6015 14.1445 18.6015 16.4068C18.6015 20.3141 15.7157 22.2474 13.8818 22.9593C13.1906 23.2276 12.4766 23.2776 11.8532 23.2776H7.87631C7.22845 23.2776 6.70325 22.7524 6.70325 22.1045V11.0442ZM8.37906 11.5469V21.6018H11.8532C12.4035 21.6018 12.8722 21.5536 13.2753 21.3971C14.8188 20.7979 16.9257 19.308 16.9257 16.4068C16.9257 14.647 16.2414 13.5059 15.3909 12.7654C14.5311 12.0167 13.4667 11.6511 12.6832 11.5469H8.37906Z" fill="#624BFF"/>
<path d="M32.08 26H37.41C43.572 26 46.926 22.854 46.926 17.082C46.926 11.206 43.468 7.878 37.436 7.878H32.08V26ZM35.746 22.62V11.232H37.358C41.206 11.232 43.234 12.74 43.234 16.926C43.234 21.242 41.18 22.62 37.046 22.62H35.746ZM53.3659 12.896C51.0779 12.896 48.9459 13.728 47.3859 15.496L49.9339 17.628C50.9739 16.458 52.0659 15.964 53.2099 15.964C54.6659 15.964 55.5239 16.718 55.5239 17.888V18.174H52.1439C50.8439 18.174 49.8039 18.356 48.9719 18.772C47.8019 19.37 47.1259 20.462 47.1259 21.97C47.1259 24.492 49.1279 26.286 51.9099 26.286C53.2099 26.286 54.6399 25.818 55.5499 24.518L55.8099 26H59.0339V17.888C59.0339 14.82 56.8759 12.896 53.3659 12.896ZM52.4819 23.374C51.2859 23.374 50.6359 22.802 50.6359 22.022C50.6359 21.632 50.7919 21.32 51.1039 21.112C51.4159 20.878 51.9099 20.774 52.6379 20.774H55.5239C55.4979 22.256 54.1199 23.374 52.4819 23.374ZM64.9974 26.286C67.4154 26.286 70.1194 24.96 70.1194 21.866C70.1194 17.108 63.6194 18.304 63.6194 16.484C63.6194 15.99 64.1134 15.574 64.9714 15.574C66.3234 15.574 66.9214 16.51 67.3114 17.212L70.0154 15.704C69.0274 13.988 67.3374 12.896 65.0494 12.896C62.6574 12.896 60.2914 14.092 60.2914 16.77C60.2914 21.424 66.6614 20.254 66.6614 22.23C66.6614 22.75 66.1934 23.4 64.9194 23.4C63.1774 23.4 62.6834 22.178 62.3714 21.372L59.5894 22.62C60.1874 24.518 62.2414 26.286 64.9974 26.286ZM78.658 12.896C77.02 12.896 75.746 13.416 74.914 14.508V7.878H71.378V26H74.914V21.112C74.914 17.628 75.486 15.964 77.54 15.964C79.048 15.964 79.776 16.77 79.776 18.486V26H83.286V17.602C83.286 14.638 81.57 12.896 78.658 12.896ZM92.3137 12.896C91.0917 12.896 89.7137 13.286 88.8037 14.274V13.182H85.2677V31.304H88.8037V24.856C89.6097 25.74 90.9877 26.286 92.3137 26.286C95.2777 26.286 97.6437 23.894 97.6437 19.604C97.6437 15.808 95.7717 12.896 92.3137 12.896ZM91.3777 23.192C89.2977 23.192 88.4657 21.606 88.4657 19.578C88.4657 17.524 89.2457 15.99 91.4297 15.99C93.2497 15.99 94.1337 17.212 94.1337 19.578C94.1337 21.944 93.2237 23.192 91.3777 23.192ZM105.793 12.896C104.389 12.896 103.037 13.754 102.465 15.21V13.182H98.9028V26H102.439V19.786C102.439 17.446 103.349 16.38 104.987 16.38C105.611 16.38 106.209 16.562 106.599 16.822L108.289 13.676C107.431 13.13 106.651 12.896 105.793 12.896ZM113.197 26.286C117.227 26.286 119.697 23.14 119.697 19.578C119.697 15.99 117.253 12.896 113.197 12.896C109.115 12.896 106.697 15.99 106.697 19.578C106.697 23.14 109.141 26.286 113.197 26.286ZM113.197 23.192C110.935 23.192 110.207 21.398 110.207 19.578C110.207 17.706 110.961 15.964 113.197 15.964C115.459 15.964 116.187 17.706 116.187 19.578C116.187 21.424 115.433 23.192 113.197 23.192ZM127.864 12.896C126.642 12.896 125.264 13.286 124.354 14.274V13.182H120.818V31.304H124.354V24.856C125.16 25.74 126.538 26.286 127.864 26.286C130.828 26.286 133.194 23.894 133.194 19.604C133.194 15.808 131.322 12.896 127.864 12.896ZM126.928 23.192C124.848 23.192 124.016 21.606 124.016 19.578C124.016 17.524 124.796 15.99 126.98 15.99C128.8 15.99 129.684 17.212 129.684 19.578C129.684 21.944 128.774 23.192 126.928 23.192ZM138.535 26.286C140.953 26.286 143.657 24.96 143.657 21.866C143.657 17.108 137.157 18.304 137.157 16.484C137.157 15.99 137.651 15.574 138.509 15.574C139.861 15.574 140.459 16.51 140.849 17.212L143.553 15.704C142.565 13.988 140.875 12.896 138.587 12.896C136.195 12.896 133.829 14.092 133.829 16.77C133.829 21.424 140.199 20.254 140.199 22.23C140.199 22.75 139.731 23.4 138.457 23.4C136.715 23.4 136.221 22.178 135.909 21.372L133.127 22.62C133.725 24.518 135.779 26.286 138.535 26.286Z" fill="#624BFF"/>
</svg>
