<svg width="84" height="33" viewBox="0 0 84 33" fill="none" xmlns="http://www.w3.org/2000/svg">
<path d="M2.08 26H7.41C13.572 26 16.926 22.854 16.926 17.082C16.926 11.206 13.468 7.878 7.436 7.878H2.08V26ZM5.746 22.62V11.232H7.358C11.206 11.232 13.234 12.74 13.234 16.926C13.234 21.242 11.18 22.62 7.046 22.62H5.746ZM23.3659 12.896C21.0779 12.896 18.9459 13.728 17.3859 15.496L19.9339 17.628C20.9739 16.458 22.0659 15.964 23.2099 15.964C24.6659 15.964 25.5239 16.718 25.5239 17.888V18.174H22.1439C20.8439 18.174 19.8039 18.356 18.9719 18.772C17.8019 19.37 17.1259 20.462 17.1259 21.97C17.1259 24.492 19.1279 26.286 21.9099 26.286C23.2099 26.286 24.6399 25.818 25.5499 24.518L25.8099 26H29.0339V17.888C29.0339 14.82 26.8759 12.896 23.3659 12.896ZM22.4819 23.374C21.2859 23.374 20.6359 22.802 20.6359 22.022C20.6359 21.632 20.7919 21.32 21.1039 21.112C21.4159 20.878 21.9099 20.774 22.6379 20.774H25.5239C25.4979 22.256 24.1199 23.374 22.4819 23.374ZM34.9974 26.286C37.4154 26.286 40.1194 24.96 40.1194 21.866C40.1194 17.108 33.6194 18.304 33.6194 16.484C33.6194 15.99 34.1134 15.574 34.9714 15.574C36.3234 15.574 36.9214 16.51 37.3114 17.212L40.0154 15.704C39.0274 13.988 37.3374 12.896 35.0494 12.896C32.6574 12.896 30.2914 14.092 30.2914 16.77C30.2914 21.424 36.6614 20.254 36.6614 22.23C36.6614 22.75 36.1934 23.4 34.9194 23.4C33.1774 23.4 32.6834 22.178 32.3714 21.372L29.5894 22.62C30.1874 24.518 32.2414 26.286 34.9974 26.286ZM48.658 12.896C47.02 12.896 45.746 13.416 44.914 14.508V7.878H41.378V26H44.914V21.112C44.914 17.628 45.486 15.964 47.54 15.964C49.048 15.964 49.776 16.77 49.776 18.486V26H53.286V17.602C53.286 14.638 51.57 12.896 48.658 12.896ZM67.6219 26.442C72.2759 26.442 74.6939 24.076 74.6939 19.318V7.878H71.0279V19.058C71.0279 21.788 70.2739 22.984 67.6219 22.984C64.9699 22.984 64.2419 21.814 64.2419 19.032V7.878H60.5759V19.448C60.5759 24.128 62.9679 26.442 67.6219 26.442ZM77.4201 26H81.0861V7.878H77.4201V26Z" fill="#624BFF"/>
</svg>
