<svg width="16" height="16" viewBox="0 0 16 16" fill="none" xmlns="http://www.w3.org/2000/svg">
<path d="M14.1922 3.83321L14.5599 2.9113C14.5599 2.9113 14.0973 2.40182 13.5279 1.81956C12.9585 1.2373 11.7604 1.57695 11.7604 1.57695L10.3962 0H5.60384L4.2278 1.58908C4.2278 1.58908 3.0297 1.24943 2.4603 1.83169C1.89091 2.41395 1.42827 2.92343 1.42827 2.92343L1.79601 3.84534L1.33337 5.20394C1.33337 5.20394 2.70941 10.5171 2.86362 11.1721C3.18391 12.4458 3.39743 12.9431 4.29897 13.5982C5.20052 14.2532 6.82566 15.3692 7.0985 15.539C7.35947 15.7089 7.70348 16 8.00004 16C8.2966 16 8.62875 15.7089 8.90158 15.539C9.16256 15.3692 10.7996 14.2411 11.7011 13.5982C12.6027 12.9553 12.8162 12.4579 13.1365 11.1721C13.3025 10.5171 14.6667 5.20394 14.6667 5.20394L14.1922 3.83321V3.83321Z" fill="url(#paint0_linear)"/>
<path d="M11.3808 2.596C11.3808 2.596 13.1364 4.76734 13.1364 5.24043C13.1364 5.71351 12.911 5.82269 12.6856 6.06529C12.4603 6.3079 11.4875 7.36324 11.3689 7.49668C11.2384 7.63011 10.9893 7.83633 11.1317 8.21237C11.2859 8.57628 11.5113 9.04937 11.2622 9.53458C11.013 10.0077 10.586 10.3352 10.3132 10.2745C10.0403 10.226 9.3879 9.87423 9.15065 9.71654C8.9134 9.55884 8.16607 8.92806 8.16607 8.68546C8.16607 8.44285 8.94899 8.00615 9.09134 7.90911C9.23369 7.81207 9.88612 7.4239 9.89798 7.27833C9.90984 7.13277 9.90984 7.08425 9.70818 6.7082C9.51838 6.33216 9.16251 5.83482 9.22182 5.5073C9.28114 5.17978 9.83867 5.00995 10.242 4.85225C10.6453 4.69456 11.4164 4.40343 11.5113 4.35491C11.6062 4.30639 11.5824 4.27 11.2859 4.23361C10.9893 4.20934 10.1708 4.08804 9.79122 4.19721C9.41162 4.30639 8.78292 4.46408 8.7236 4.549C8.67616 4.63391 8.62871 4.63391 8.67616 4.93717C8.7236 5.2283 9.0083 6.65968 9.03203 6.91442C9.05575 7.16916 9.11506 7.33898 8.84223 7.39964C8.58126 7.46029 8.13049 7.56946 7.97627 7.56946C7.82206 7.56946 7.37129 7.46029 7.11032 7.39964C6.84935 7.33898 6.8968 7.16916 6.92052 6.91442C6.94425 6.65968 7.21708 5.24043 7.27639 4.93717C7.32384 4.64604 7.28826 4.63391 7.22894 4.549C7.1815 4.46408 6.54093 4.30639 6.16133 4.19721C5.78173 4.08804 4.96323 4.19721 4.66667 4.23361C4.37011 4.25787 4.34639 4.30639 4.44129 4.35491C4.53619 4.40343 5.30724 4.69456 5.71056 4.85225C6.11388 5.00995 6.67141 5.17978 6.73072 5.5073C6.79004 5.83482 6.44603 6.33216 6.24437 6.7082C6.05457 7.08425 6.04271 7.12064 6.05457 7.27833C6.06643 7.4239 6.71886 7.81207 6.86121 7.90911C7.00356 8.00615 7.78648 8.44285 7.78648 8.68546C7.78648 8.92806 7.03915 9.55884 6.8019 9.71654C6.56465 9.87423 5.92408 10.2139 5.63939 10.2745C5.36655 10.3231 4.93951 10.0077 4.6904 9.53458C4.44129 9.0615 4.66667 8.58841 4.82088 8.21237C4.97509 7.84846 4.71412 7.64224 4.58363 7.49668C4.45315 7.36324 3.4923 6.3079 3.26691 6.06529C3.04153 5.82269 2.828 5.70138 2.828 5.24043C2.828 4.77947 4.58363 2.596 4.58363 2.596C4.58363 2.596 6.06643 2.88713 6.26809 2.88713C6.46975 2.88713 6.8968 2.71731 7.30012 2.58387C7.70344 2.45044 7.96441 2.45044 7.96441 2.45044C7.96441 2.45044 8.22538 2.45044 8.62871 2.58387C9.03203 2.71731 9.45907 2.88713 9.66073 2.88713C9.86239 2.88713 11.3808 2.596 11.3808 2.596V2.596ZM10.0641 10.9053C10.1708 10.9781 10.1115 11.1115 10.0047 11.1722C9.90984 11.245 8.56939 12.3003 8.45077 12.4216C8.32028 12.5429 8.13049 12.7249 8 12.7249C7.86951 12.7249 7.67972 12.5308 7.54923 12.4216C7.41874 12.3003 6.09016 11.245 5.99526 11.1722C5.90036 11.0994 5.82918 10.966 5.93595 10.9053C6.04271 10.8325 6.38672 10.6627 6.84935 10.408C7.32384 10.1532 7.9051 9.94702 8 9.94702C8.0949 9.94702 8.67616 10.1532 9.15065 10.408C9.61328 10.6627 9.95729 10.8447 10.0641 10.9053V10.9053Z" fill="white"/>
<path d="M11.7604 1.58908L10.3963 0H5.60386L4.22782 1.58908C4.22782 1.58908 3.02972 1.24943 2.46033 1.83169C2.46033 1.83169 4.06175 1.68613 4.60742 2.59591C4.60742 2.59591 6.09022 2.88704 6.29188 2.88704C6.49354 2.88704 6.92059 2.71721 7.32391 2.58378C7.72723 2.45034 7.98821 2.45034 7.98821 2.45034C7.98821 2.45034 8.24918 2.45034 8.6525 2.58378C9.05582 2.71721 9.48287 2.88704 9.68453 2.88704C9.88619 2.88704 11.369 2.59591 11.369 2.59591C11.9147 1.68613 13.5161 1.83169 13.5161 1.83169C12.9586 1.24943 11.7604 1.58908 11.7604 1.58908" fill="url(#paint1_linear)"/>
<defs>
<linearGradient id="paint0_linear" x1="1.34118" y1="7.99643" x2="14.6641" y2="7.99643" gradientUnits="userSpaceOnUse">
<stop stop-color="#FF5500"/>
<stop offset="0.41" stop-color="#FF5500"/>
<stop offset="0.582" stop-color="#FF2000"/>
<stop offset="1" stop-color="#FF2000"/>
</linearGradient>
<linearGradient id="paint1_linear" x1="2.7074" y1="1.43861" x2="13.5332" y2="1.43861" gradientUnits="userSpaceOnUse">
<stop stop-color="#FF452A"/>
<stop offset="1" stop-color="#FF2000"/>
</linearGradient>
</defs>
</svg>
