<svg width="16" height="16" viewBox="0 0 16 16" fill="none" xmlns="http://www.w3.org/2000/svg">
<g clip-path="url(#clip0)">
<path d="M16.0003 8.35521C16.0003 7.07028 15.6733 5.8632 15.0998 4.8142C17.5442 -0.805612 12.4807 0.0174811 12.1988 0.0735433C11.126 0.286809 10.1335 0.62915 9.2181 1.06317C9.0831 1.05543 8.94723 1.05117 8.81041 1.05117C5.39385 1.05117 2.53398 3.47195 1.80204 6.71715C3.60279 4.66494 4.86298 3.83689 5.61766 3.5056C5.49802 3.61434 5.37988 3.72478 5.26329 3.83689C5.22466 3.87391 5.18748 3.91149 5.14941 3.9487C5.07297 4.02303 4.99717 4.09806 4.92204 4.17377C4.87766 4.21866 4.83454 4.26393 4.79079 4.3092C4.72477 4.37717 4.65925 4.44564 4.59423 4.51459C4.54835 4.56348 4.5036 4.61243 4.4586 4.66138C4.39844 4.72662 4.33875 4.79232 4.27954 4.85846C4.23391 4.90969 4.18891 4.96087 4.14404 5.01223C4.04281 5.12789 3.94288 5.24472 3.84429 5.3627C3.7929 5.42435 3.74185 5.48629 3.69116 5.54854C3.64654 5.60339 3.60204 5.65812 3.55835 5.71291C3.51151 5.7718 3.46496 5.83093 3.41873 5.89031C3.37398 5.94758 3.32929 6.00472 3.2856 6.06192C3.24398 6.11633 3.2036 6.17056 3.16291 6.22484C3.11698 6.28624 3.07066 6.34757 3.02598 6.40858C2.99398 6.45226 2.96329 6.49556 2.93185 6.53905C2.66092 6.9145 2.40144 7.29833 2.15379 7.69001C2.15316 7.6909 2.15254 7.69179 2.1521 7.69274C2.09151 7.78874 2.03161 7.88518 1.97241 7.98207C1.96929 7.98721 1.96604 7.99242 1.96291 7.99769C1.9056 8.09162 1.84895 8.18597 1.79298 8.28073L1.7871 8.29057C1.64674 8.52806 1.51053 8.76805 1.37854 9.01043C0.730976 10.2025 0.415726 11.0354 0.402101 11.0849C-1.64277 18.5114 4.73935 15.3752 5.62991 14.9071C6.58885 15.3883 7.66835 15.6592 8.81041 15.6592C11.9367 15.6592 14.5967 13.6319 15.5868 10.8009H11.8089C11.2499 11.7603 10.1737 12.4101 8.93735 12.4101C7.12585 12.4101 5.65741 11.0158 5.65741 9.29588H15.9412C15.9802 8.98789 16.0003 8.67393 16.0003 8.35521ZM14.6572 1.16761C15.2764 1.59218 15.773 2.25883 14.9202 4.50405C14.1022 3.1677 12.8715 2.1194 11.4088 1.54323C12.0742 1.21682 13.722 0.526359 14.6572 1.16761V1.16761ZM1.4991 14.8921C0.994726 14.3668 0.905601 13.0872 2.01848 10.7555C2.58004 12.3958 3.70073 13.7701 5.14923 14.6424C4.42885 15.0452 2.51635 15.9521 1.4991 14.8921V14.8921ZM5.64154 7.29859C5.69904 5.62695 7.13116 4.2885 8.89073 4.2885C10.6503 4.2885 12.0825 5.62695 12.14 7.29859H5.64154Z" fill="#1EBBEE"/>
</g>
<defs>
<clipPath id="clip0">
<rect width="16" height="16" fill="white"/>
</clipPath>
</defs>
</svg>
