<svg width="16" height="16" viewBox="0 0 16 16" fill="none" xmlns="http://www.w3.org/2000/svg">
<path d="M8 16C12.4183 16 16 12.4183 16 8C16 3.58172 12.4183 0 8 0C3.58172 0 0 3.58172 0 8C0 12.4183 3.58172 16 8 16Z" fill="#EEEEEE"/>
<path d="M7.99998 15.4001C12.0869 15.4001 15.4 12.087 15.4 8.0001C15.4 3.91319 12.0869 0.600098 7.99998 0.600098C3.91307 0.600098 0.599976 3.91319 0.599976 8.0001C0.599976 12.087 3.91307 15.4001 7.99998 15.4001Z" fill="url(#paint0_radial)"/>
<path d="M8.01256 2.39994C7.96256 2.39994 7.91882 2.36245 7.91882 2.31245V1.00619C7.91882 0.956185 7.96256 0.918701 8.01256 0.918701C8.06256 0.918701 8.1063 0.956185 8.1063 1.00619V2.31245C8.10004 2.36245 8.06256 2.39994 8.01256 2.39994Z" fill="#F3F3F3"/>
<path d="M8.01247 2.40633C7.95622 2.40633 7.91248 2.36259 7.91248 2.31259V1.00634C7.91248 0.956339 7.95622 0.912598 8.01247 0.912598C8.06873 0.912598 8.11247 0.956339 8.11247 1.00634V2.31259C8.11247 2.36259 8.06247 2.40633 8.01247 2.40633ZM8.01247 0.925049C7.96873 0.925049 7.92499 0.962597 7.92499 1.00634V2.31259C7.92499 2.35633 7.96247 2.39388 8.01247 2.39388C8.05621 2.39388 8.09995 2.35633 8.09995 2.31259V1.00634C8.09376 0.962597 8.05621 0.925049 8.01247 0.925049V0.925049Z" fill="white"/>
<path d="M8.63753 1.70007C8.58753 1.69381 8.55005 1.65632 8.55005 1.60632L8.59379 1.02502C8.59998 0.975088 8.64379 0.93754 8.69379 0.943798C8.74379 0.950056 8.78127 0.987605 8.78127 1.03761L8.73753 1.61884C8.73127 1.66884 8.68753 1.70633 8.63753 1.70013V1.70007Z" fill="#F3F3F3"/>
<path d="M8.63757 1.70613C8.58131 1.69987 8.54382 1.65613 8.54382 1.60613L8.58757 1.02484C8.59382 0.974903 8.63757 0.931161 8.69382 0.937355C8.75002 0.943613 8.78757 0.987419 8.78757 1.03736L8.74382 1.61865C8.73757 1.67491 8.69382 1.71239 8.63757 1.70613ZM8.69382 0.949871C8.65008 0.949871 8.60628 0.981161 8.60628 1.0249L8.56253 1.6062C8.56253 1.64987 8.59382 1.68742 8.64382 1.69362C8.68757 1.69362 8.73131 1.66239 8.73131 1.61865L8.77505 1.03736C8.77505 0.993613 8.73757 0.956129 8.69376 0.949871H8.69382Z" fill="white"/>
<path d="M9.10622 2.51249C9.05616 2.49998 9.02493 2.45623 9.03119 2.40623L9.28743 1.12494C9.29995 1.075 9.34369 1.04371 9.39369 1.05623C9.44368 1.06874 9.47491 1.11249 9.46865 1.16249L9.21241 2.44378C9.20615 2.48746 9.15615 2.51875 9.10615 2.51249H9.10622Z" fill="#F3F3F3"/>
<path d="M9.10612 2.5188C9.04981 2.50628 9.01858 2.45628 9.02484 2.40628L9.28108 1.125C9.29359 1.07507 9.34359 1.03752 9.39978 1.05003C9.45604 1.06255 9.48732 1.11255 9.48107 1.16255L9.22483 2.44383C9.21231 2.49377 9.16231 2.52506 9.10612 2.5188ZM9.39978 1.06255C9.35604 1.05629 9.3123 1.08126 9.29979 1.12507L9.04361 2.40635C9.03735 2.45003 9.06232 2.49377 9.11232 2.50635C9.15606 2.51254 9.1998 2.48751 9.21231 2.44377L9.46855 1.16255C9.47481 1.11255 9.44358 1.07507 9.39978 1.06255V1.06255Z" fill="white"/>
<path d="M9.856 1.95015C9.8441 1.94728 9.83288 1.94209 9.82298 1.93488C9.81308 1.92767 9.8047 1.91858 9.79832 1.90813C9.79194 1.89768 9.78768 1.88608 9.78579 1.87398C9.7839 1.86188 9.78441 1.84953 9.78729 1.83763L9.94355 1.27518C9.956 1.22518 10.006 1.20015 10.056 1.21266C10.106 1.22518 10.1373 1.27518 10.1248 1.32518L9.96852 1.88769C9.95601 1.93763 9.906 1.96266 9.856 1.95015Z" fill="#F3F3F3"/>
<path d="M9.85599 1.95637C9.80598 1.94385 9.7685 1.88759 9.78727 1.83766L9.94354 1.27508C9.95599 1.22515 10.0123 1.19386 10.0623 1.20637C10.1123 1.21889 10.1497 1.27515 10.131 1.32508L9.97477 1.88766C9.96225 1.93759 9.91225 1.96888 9.85605 1.95637H9.85599ZM10.0623 1.22515C10.0185 1.21263 9.96851 1.23766 9.95599 1.28141L9.79979 1.84385C9.78727 1.88759 9.81224 1.9314 9.86225 1.94385C9.90599 1.95637 9.95599 1.9314 9.96851 1.88766L10.1248 1.32508C10.131 1.28141 10.1061 1.23766 10.0623 1.22508V1.22515Z" fill="white"/>
<path d="M10.1626 2.83135C10.1126 2.81257 10.0939 2.75632 10.1126 2.71258L10.6126 1.50632C10.6313 1.46258 10.6876 1.43755 10.7313 1.46258C10.7813 1.48129 10.8001 1.53761 10.7813 1.58129L10.2814 2.78754C10.2626 2.83135 10.2063 2.85632 10.1626 2.83135H10.1626Z" fill="#F3F3F3"/>
<path d="M10.1624 2.83766C10.1384 2.82851 10.1189 2.81021 10.1084 2.78677C10.0979 2.76333 10.097 2.73667 10.1061 2.71263L10.6061 1.50636C10.6249 1.45636 10.6812 1.43759 10.7374 1.45636C10.7614 1.46551 10.7808 1.48381 10.7914 1.50725C10.8019 1.53069 10.8028 1.55735 10.7937 1.58139L10.2937 2.78766C10.2686 2.83766 10.2124 2.86263 10.1624 2.83766ZM10.7312 1.46888C10.6874 1.45017 10.6374 1.46888 10.6186 1.51262L10.1186 2.71888C10.0999 2.76263 10.1249 2.80637 10.1686 2.82514C10.2124 2.84385 10.2624 2.82514 10.2811 2.7814L10.7812 1.57514C10.7937 1.53759 10.7749 1.48759 10.7312 1.46888V1.46888Z" fill="white"/>
<path d="M11.0065 2.43137C10.9627 2.40633 10.9439 2.35633 10.9627 2.31259L11.2252 1.79388C11.2502 1.75007 11.3002 1.7313 11.3503 1.75633C11.394 1.78136 11.4127 1.83136 11.394 1.87504L11.1314 2.39382C11.1064 2.43756 11.0564 2.4564 11.0064 2.43137H11.0065Z" fill="#F3F3F3"/>
<path d="M11.0065 2.43748C10.9564 2.41245 10.9377 2.35619 10.9627 2.30619L11.2252 1.78748C11.2502 1.73742 11.3065 1.71871 11.3564 1.74368C11.4064 1.76871 11.4252 1.82497 11.4002 1.87497L11.1377 2.39367C11.1127 2.44367 11.0564 2.46245 11.0064 2.43742L11.0065 2.43748ZM11.3502 1.75619C11.3064 1.73748 11.2564 1.74994 11.2377 1.79368L10.9752 2.31245C10.9565 2.34993 10.9752 2.39993 11.0127 2.42496C11.0564 2.44367 11.1064 2.43122 11.1252 2.38748L11.3877 1.86871C11.4064 1.83122 11.3877 1.78123 11.3502 1.75619Z" fill="white"/>
<path d="M11.1312 3.3562C11.0875 3.32497 11.075 3.26872 11.1062 3.23123L11.8312 2.14996C11.8562 2.10622 11.9125 2.09996 11.9562 2.125C12 2.15622 12.0125 2.21248 11.9812 2.24996L11.2562 3.33123C11.2312 3.37497 11.175 3.38749 11.1312 3.3562Z" fill="#F3F3F3"/>
<path d="M11.1314 3.36268C11.0876 3.33146 11.0751 3.26894 11.1002 3.2252L11.8251 2.14392C11.8564 2.10017 11.9126 2.08766 11.9626 2.11895C12.0064 2.15017 12.0189 2.21269 11.9939 2.25643L11.2689 3.33771C11.2376 3.38146 11.1751 3.39391 11.1314 3.36268ZM11.9564 2.13146C11.9189 2.10643 11.8626 2.11269 11.8377 2.15017L11.1126 3.23146C11.0876 3.26888 11.1001 3.31894 11.1376 3.34391C11.1751 3.36894 11.2314 3.36268 11.2564 3.3252L11.9814 2.25017C12.0064 2.21269 11.9939 2.15643 11.9564 2.13146V2.13146Z" fill="white"/>
<path d="M12.0436 3.12502C12.0062 3.09373 11.9937 3.03747 12.0249 2.99998L12.3874 2.5437C12.4186 2.50628 12.4749 2.49996 12.5123 2.53125C12.5499 2.56248 12.5623 2.61874 12.5311 2.65622L12.1686 3.11251C12.1374 3.14999 12.0811 3.15625 12.0437 3.12502H12.0436Z" fill="#F3F3F3"/>
<path d="M12.0375 3.13117C11.9938 3.09988 11.9875 3.03736 12.0188 2.99362L12.3813 2.53742C12.4125 2.49361 12.475 2.48735 12.5187 2.5249C12.5625 2.55613 12.5687 2.61864 12.5375 2.66239L12.175 3.11866C12.1438 3.1624 12.0813 3.16866 12.0375 3.13117V3.13117ZM12.5062 2.53735C12.4688 2.50612 12.4187 2.51238 12.3875 2.54987L12.025 3.00614C12.0001 3.04362 12.0063 3.09362 12.0437 3.12485C12.0813 3.15614 12.1313 3.14988 12.1625 3.1124L12.525 2.65613C12.55 2.61864 12.5437 2.56238 12.5063 2.53742L12.5062 2.53735Z" fill="white"/>
<path d="M11.981 4.06249C11.9435 4.02501 11.9435 3.96875 11.981 3.93746L12.906 3.01876C12.9436 2.98128 12.9998 2.98747 13.0311 3.01876C13.0623 3.04999 13.0686 3.1125 13.0311 3.14373L12.1123 4.06249C12.0747 4.09997 12.0185 4.09997 11.981 4.06249V4.06249Z" fill="#F3F3F3"/>
<path d="M11.9751 4.06878C11.9571 4.05045 11.947 4.02576 11.947 4.00004C11.947 3.97433 11.9571 3.94964 11.9751 3.9313L12.9001 3.01253C12.9184 2.99449 12.9431 2.98438 12.9689 2.98438C12.9946 2.98437 13.0193 2.99449 13.0376 3.01253C13.0557 3.03087 13.0658 3.05556 13.0658 3.08128C13.0658 3.10699 13.0557 3.13168 13.0376 3.15002L12.1126 4.06872C12.0943 4.08675 12.0696 4.09685 12.0439 4.09685C12.0182 4.09685 11.9935 4.08675 11.9751 4.06872V4.06878ZM13.0314 3.01879C13.0001 2.9875 12.9439 2.9875 12.9127 3.01879L11.9877 3.9375C11.9564 3.96879 11.9564 4.02504 11.9877 4.05627C12.0189 4.08756 12.0751 4.08756 12.1064 4.05627L13.0314 3.13757C13.0626 3.10628 13.0626 3.05628 13.0314 3.01879Z" fill="white"/>
<path d="M12.9188 4.01267C12.8876 3.97519 12.8876 3.91893 12.9251 3.88764L13.3688 3.51268C13.4063 3.48146 13.4625 3.48765 13.4938 3.5252C13.525 3.56268 13.525 3.61894 13.4876 3.65016L13.0438 4.02518C13.0063 4.05641 12.95 4.05015 12.9188 4.01267Z" fill="#F3F3F3"/>
<path d="M12.9127 4.01881C12.8753 3.97507 12.8815 3.91255 12.919 3.88133L13.3627 3.5063C13.4002 3.46881 13.4627 3.47507 13.5001 3.51881C13.5377 3.56255 13.5314 3.62507 13.4939 3.6563L13.0502 4.03133C13.0128 4.06874 12.9502 4.06255 12.9128 4.01881H12.9127ZM13.4877 3.52507C13.4564 3.48759 13.4064 3.48759 13.369 3.51255L12.9253 3.88758C12.894 3.91881 12.8878 3.96881 12.919 4.00629C12.9502 4.04378 13.0003 4.04378 13.0377 4.01881L13.4814 3.64378C13.5189 3.61255 13.5189 3.56255 13.4877 3.52507Z" fill="white"/>
<path d="M12.6687 4.91256C12.6375 4.86882 12.65 4.81256 12.6937 4.78753L13.7812 4.06258C13.825 4.03755 13.8812 4.05007 13.9062 4.08762C13.9375 4.13136 13.925 4.18761 13.8812 4.21258L12.7937 4.93753C12.7562 4.96256 12.6999 4.95004 12.6687 4.91256V4.91256Z" fill="#F3F3F3"/>
<path d="M12.6625 4.91248C12.6313 4.86874 12.6438 4.80622 12.6875 4.775L13.775 4.04997C13.8188 4.01875 13.8813 4.03126 13.9125 4.08126C13.9438 4.125 13.9312 4.18752 13.8876 4.21868L12.8 4.94377C12.7562 4.97506 12.6938 4.96255 12.6625 4.91255V4.91248ZM13.9 4.09378C13.8751 4.05623 13.8251 4.04372 13.7876 4.06875L12.7 4.79371C12.6625 4.81874 12.65 4.86874 12.6813 4.91248C12.7062 4.94997 12.7562 4.96248 12.7938 4.93751L13.8813 4.21249C13.9188 4.18126 13.9251 4.1312 13.9 4.09378Z" fill="white"/>
<path d="M13.6002 5.04387C13.5751 5.00006 13.5876 4.94386 13.6314 4.91883L14.1377 4.63133C14.1814 4.6063 14.2377 4.62507 14.2626 4.66875C14.2877 4.71256 14.2751 4.76876 14.2314 4.79379L13.7251 5.08135C13.6814 5.10632 13.6251 5.08761 13.6001 5.0438L13.6002 5.04387Z" fill="#F3F3F3"/>
<path d="M13.5938 5.05003C13.5688 5.00003 13.5813 4.94377 13.625 4.91881L14.1313 4.63133C14.1751 4.6063 14.2376 4.62507 14.2625 4.66875C14.2876 4.71881 14.2751 4.77507 14.2313 4.80004L13.725 5.08758C13.6813 5.11254 13.6188 5.09377 13.5938 5.05003V5.05003ZM14.2563 4.67507C14.2313 4.63133 14.1813 4.61882 14.1438 4.64378L13.6376 4.93132C13.6001 4.95629 13.5876 5.00629 13.6063 5.04377C13.6313 5.08751 13.6813 5.10003 13.7188 5.07506L14.2251 4.78752C14.2625 4.76881 14.2751 4.71881 14.2563 4.67507V4.67507Z" fill="white"/>
<path d="M13.1813 5.87502C13.1626 5.82502 13.1813 5.77502 13.2313 5.75631L14.4376 5.25632C14.4814 5.23754 14.5376 5.26251 14.5563 5.30625C14.5751 5.35625 14.5563 5.40625 14.5063 5.42496L13.3001 5.92495C13.2563 5.94372 13.2001 5.92495 13.1813 5.87502Z" fill="#F3F3F3"/>
<path d="M13.1751 5.88112C13.1564 5.83119 13.1751 5.77493 13.2251 5.74989L14.4314 5.24989C14.4554 5.24083 14.4821 5.24167 14.5055 5.25221C14.5289 5.26275 14.5472 5.28215 14.5564 5.30615C14.5751 5.35615 14.5564 5.41241 14.5064 5.43738L13.3001 5.93738C13.2761 5.94646 13.2494 5.94565 13.226 5.93512C13.2026 5.92458 13.1842 5.90519 13.1751 5.88119V5.88112ZM14.5439 5.31241C14.5251 5.26867 14.4751 5.24989 14.4376 5.26241L13.2313 5.76241C13.1876 5.78112 13.1688 5.83119 13.1876 5.87493C13.2063 5.91867 13.2563 5.93744 13.2939 5.92493L14.5001 5.42493C14.5439 5.40622 14.5627 5.35615 14.5439 5.31241Z" fill="white"/>
<path d="M14.0625 6.18743C14.0438 6.13737 14.0687 6.08743 14.1187 6.06866L14.6687 5.88737C14.7124 5.86866 14.7687 5.89989 14.7812 5.94363C14.7999 5.99363 14.7749 6.04363 14.7249 6.0624L14.175 6.24369C14.1312 6.2624 14.0813 6.23743 14.0625 6.18737V6.18743Z" fill="#F3F3F3"/>
<path d="M14.0567 6.19383C14.038 6.14383 14.0629 6.08757 14.1192 6.06886L14.6691 5.88756C14.7191 5.86885 14.7754 5.90008 14.7942 5.95015C14.8129 6.00008 14.7879 6.05634 14.7316 6.07512L14.1817 6.25641C14.1317 6.26886 14.0754 6.24383 14.0567 6.19383ZM14.7816 5.9564C14.7691 5.9126 14.7191 5.88756 14.6754 5.90008L14.1254 6.08137C14.0817 6.09383 14.0629 6.14383 14.0754 6.18764C14.088 6.23138 14.138 6.25635 14.1817 6.24383L14.7316 6.0626C14.7754 6.04389 14.7942 6.00008 14.7816 5.95634V5.9564Z" fill="white"/>
<path d="M13.4998 6.93141C13.4873 6.88142 13.5185 6.83142 13.5685 6.82516L14.8499 6.57518C14.8998 6.56267 14.9436 6.60015 14.9561 6.65014C14.9686 6.70014 14.9374 6.75014 14.8874 6.75639L13.606 7.00637C13.556 7.01263 13.506 6.98141 13.4998 6.93141H13.4998Z" fill="#F3F3F3"/>
<path d="M13.4874 6.93125C13.4749 6.87499 13.5124 6.82499 13.5624 6.81247L14.8437 6.56247C14.8937 6.54995 14.9437 6.5875 14.9561 6.64376C14.9686 6.69995 14.9311 6.74995 14.8811 6.76247L13.5999 7.01247C13.5499 7.02499 13.4999 6.9875 13.4874 6.93118V6.93125ZM14.9437 6.64995C14.9374 6.60621 14.8937 6.57499 14.8499 6.58124L13.5686 6.83124C13.5249 6.8375 13.4937 6.88744 13.5061 6.93125C13.5124 6.97499 13.5561 7.00621 13.5999 6.99995L14.8811 6.74995C14.9249 6.73744 14.9561 6.6937 14.9437 6.64995Z" fill="white"/>
<path d="M14.3004 7.41259C14.2941 7.36259 14.3253 7.31886 14.3753 7.3126L14.9503 7.24383C15.0003 7.23764 15.0441 7.27512 15.0503 7.32511C15.0565 7.37511 15.0253 7.41884 14.9753 7.4251L14.4003 7.4938C14.3565 7.50006 14.3065 7.46258 14.3003 7.41259H14.3004Z" fill="#F3F3F3"/>
<path d="M14.2938 7.41261C14.2875 7.35636 14.325 7.30636 14.375 7.3001L14.9499 7.23139C14.9999 7.22514 15.0499 7.26262 15.0562 7.31887C15.0624 7.37513 15.025 7.42513 14.975 7.43138L14.4 7.50009C14.35 7.50635 14.3 7.46886 14.2938 7.41261ZM15.0499 7.32513C15.0437 7.28139 15 7.24384 14.9562 7.2501L14.3813 7.31887C14.3375 7.32513 14.3062 7.36887 14.3125 7.41261C14.3187 7.45635 14.3625 7.4939 14.4062 7.48764L14.9812 7.41887C15.025 7.41261 15.0562 7.36887 15.05 7.32513H15.0499Z" fill="white"/>
<path d="M13.6001 8.01879C13.6001 7.96879 13.6375 7.92505 13.6876 7.92505H14.9938C15.0438 7.92505 15.0813 7.96879 15.0813 8.01879C15.0813 8.06878 15.0438 8.11252 14.9938 8.11252H13.6876C13.6376 8.11252 13.6001 8.06878 13.6001 8.01879Z" fill="#F3F3F3"/>
<path d="M13.5939 8.0187C13.5939 7.96244 13.6376 7.9187 13.6876 7.9187H14.9939C15.0439 7.9187 15.0876 7.96244 15.0876 8.0187C15.0876 8.07495 15.0439 8.11869 14.9939 8.11869H13.6876C13.6376 8.11869 13.5939 8.07495 13.5939 8.0187ZM15.0751 8.02495C15.0751 7.98121 15.0376 7.93747 14.9938 7.93747H13.6877C13.6439 7.93747 13.6064 7.97489 13.6064 8.02495C13.6064 8.0687 13.6439 8.11244 13.6877 8.11244H14.9939C15.0377 8.10618 15.0752 8.0687 15.0752 8.02495H15.0751Z" fill="white"/>
<path d="M14.2938 8.64998C14.3 8.59998 14.3375 8.5625 14.3875 8.5625L14.9688 8.60624C15.0187 8.6125 15.0562 8.65624 15.0499 8.70624C15.0437 8.75624 15.0062 8.79372 14.9562 8.79372L14.375 8.74998C14.3312 8.74372 14.2937 8.69998 14.2937 8.64998H14.2938Z" fill="#F3F3F3"/>
<path d="M14.2875 8.65014C14.2937 8.59388 14.3375 8.5564 14.3875 8.5564L14.9688 8.60014C15.0188 8.6064 15.0625 8.65014 15.0562 8.7064C15.0501 8.76265 15.0062 8.80014 14.9562 8.80014L14.375 8.7564C14.325 8.75014 14.2875 8.70014 14.2875 8.65014ZM15.0501 8.7064C15.0562 8.66265 15.0188 8.61891 14.975 8.61891L14.3937 8.57517C14.35 8.57517 14.3124 8.6064 14.3062 8.65646C14.3 8.70014 14.3375 8.74388 14.3812 8.74388L14.9626 8.78762C15.0062 8.78762 15.0438 8.7502 15.0501 8.7064V8.7064Z" fill="white"/>
<path d="M13.4877 9.10629C13.5003 9.05629 13.544 9.025 13.594 9.03133L14.8752 9.28759C14.9252 9.30004 14.9565 9.34378 14.944 9.39378C14.9315 9.44378 14.8878 9.47507 14.8378 9.46881L13.5564 9.21255C13.5127 9.20629 13.4815 9.15629 13.4877 9.10629V9.10629Z" fill="#F3F3F3"/>
<path d="M13.4813 9.10623C13.4938 9.04998 13.5438 9.01875 13.5938 9.02495L14.875 9.28125C14.925 9.2937 14.9625 9.34369 14.9499 9.39995C14.9375 9.4562 14.8875 9.48749 14.8375 9.48123L13.5562 9.22499C13.5062 9.21248 13.475 9.16248 13.4813 9.10629V9.10623ZM14.9375 9.39995C14.9437 9.35621 14.9188 9.31247 14.875 9.29995L13.5937 9.04372C13.55 9.03753 13.5062 9.06249 13.4937 9.11249C13.4875 9.15622 13.5125 9.19996 13.5563 9.21248L14.8375 9.46871C14.8875 9.47497 14.925 9.44368 14.9375 9.39995Z" fill="white"/>
<path d="M14.0497 9.85623C14.0526 9.84434 14.0578 9.83312 14.065 9.82323C14.0722 9.81334 14.0813 9.80496 14.0917 9.79858C14.1022 9.7922 14.1138 9.78794 14.1259 9.78604C14.1379 9.78414 14.1503 9.78464 14.1622 9.78752L14.7247 9.94372C14.7747 9.95624 14.7997 10.0063 14.7872 10.0562C14.7843 10.0682 14.7792 10.0794 14.772 10.0893C14.7648 10.0992 14.7557 10.1076 14.7452 10.114C14.7348 10.1204 14.7232 10.1246 14.7111 10.1265C14.699 10.1284 14.6866 10.1279 14.6747 10.125L14.1122 9.96876C14.0622 9.95624 14.0372 9.90624 14.0497 9.85623H14.0497Z" fill="#F3F3F3"/>
<path d="M14.044 9.85634C14.0565 9.80635 14.1128 9.76887 14.1628 9.78764L14.7253 9.94381C14.7753 9.95633 14.8065 10.0126 14.794 10.0626C14.7815 10.1126 14.7253 10.15 14.6753 10.1313L14.1128 9.9751C14.0628 9.96258 14.0315 9.91259 14.044 9.8564L14.044 9.85634ZM14.7753 10.0626C14.7878 10.0188 14.7627 9.96884 14.719 9.95633L14.1565 9.80009C14.1128 9.78757 14.069 9.8126 14.0565 9.8626C14.044 9.90633 14.069 9.95633 14.1128 9.96884L14.6753 10.1251C14.719 10.1313 14.7627 10.1064 14.7753 10.0626Z" fill="white"/>
<path d="M13.1688 10.1563C13.1875 10.1063 13.2438 10.0875 13.2875 10.1063L14.4938 10.6063C14.5375 10.625 14.5625 10.6813 14.5438 10.725C14.525 10.7751 14.4687 10.7938 14.425 10.7751L13.2188 10.275C13.1688 10.2563 13.15 10.2 13.1688 10.1563V10.1563Z" fill="#F3F3F3"/>
<path d="M13.1625 10.1499C13.1717 10.1259 13.19 10.1065 13.2134 10.096C13.2368 10.0854 13.2635 10.0846 13.2876 10.0937L14.4939 10.5937C14.544 10.6125 14.5627 10.6687 14.5439 10.725C14.5348 10.749 14.5165 10.7684 14.4931 10.7789C14.4696 10.7895 14.4429 10.7903 14.4189 10.7812L13.2125 10.2812C13.1625 10.2562 13.1438 10.1999 13.1625 10.1499ZM14.5314 10.7187C14.5501 10.675 14.5314 10.625 14.4877 10.6062L13.2813 10.1062C13.2376 10.0875 13.1938 10.1124 13.175 10.1562C13.1563 10.1999 13.175 10.2499 13.2188 10.2687L14.4252 10.7687C14.4689 10.7812 14.5189 10.7625 14.5314 10.7187Z" fill="white"/>
<path d="M13.5752 11C13.6002 10.9562 13.6501 10.9375 13.6939 10.9562L14.2127 11.2188C14.2564 11.2375 14.2752 11.2937 14.2502 11.3437C14.2252 11.3875 14.1752 11.4063 14.1315 11.3875L13.6127 11.125C13.5689 11.1 13.5501 11.0437 13.5752 11Z" fill="#F3F3F3"/>
<path d="M13.5689 10.9937C13.5939 10.9437 13.6502 10.925 13.7002 10.95L14.2189 11.2125C14.2689 11.2375 14.2877 11.2938 14.2626 11.3437C14.2377 11.3937 14.1813 11.4125 14.1314 11.3875L13.6127 11.125C13.5626 11.1063 13.5439 11.0437 13.5689 10.9937V10.9937ZM14.2439 11.3375C14.2626 11.2937 14.2501 11.2437 14.2064 11.225L13.6876 10.9625C13.6501 10.9438 13.6002 10.9625 13.5751 11C13.5564 11.0437 13.5689 11.0937 13.6126 11.1125L14.1313 11.375C14.1751 11.3937 14.2251 11.3813 14.2439 11.3375Z" fill="white"/>
<path d="M12.6561 11.1188C12.6874 11.075 12.7374 11.0625 12.7812 11.0938L13.8686 11.8188C13.9123 11.8438 13.9186 11.9001 13.8936 11.9438C13.8624 11.9876 13.8124 12 13.7686 11.9688L12.6812 11.2438C12.6374 11.2125 12.6249 11.1563 12.6561 11.1188Z" fill="#F3F3F3"/>
<path d="M12.6498 11.1126C12.6811 11.0688 12.7436 11.0563 12.7874 11.0814L13.8748 11.8063C13.9186 11.8375 13.9311 11.8938 13.8998 11.9438C13.8686 11.9876 13.8061 12.0001 13.7624 11.9751L12.6748 11.2501C12.6248 11.2188 12.6186 11.1563 12.6498 11.1126ZM13.8811 11.9375C13.9061 11.9001 13.8998 11.8438 13.8624 11.8188L12.7748 11.0938C12.7374 11.0688 12.6874 11.0814 12.6623 11.1188C12.6374 11.1563 12.6436 11.2126 12.681 11.2376L13.7686 11.9626C13.8061 11.9876 13.8561 11.9751 13.8811 11.9376V11.9375Z" fill="white"/>
<path d="M12.8876 12.025C12.9188 11.9874 12.9751 11.975 13.0125 12.0063L13.4688 12.3625C13.5063 12.3937 13.5126 12.45 13.4813 12.4875C13.4501 12.5249 13.3938 12.5375 13.3563 12.5062L12.9 12.15C12.8626 12.1187 12.8563 12.0625 12.8876 12.025V12.025Z" fill="#F3F3F3"/>
<path d="M12.8815 12.0187C12.9127 11.975 12.9752 11.9687 13.0189 12L13.4751 12.3562C13.5189 12.3875 13.5251 12.45 13.4938 12.4937C13.4626 12.5375 13.4001 12.5437 13.3564 12.5125L12.9002 12.1562C12.8564 12.125 12.8502 12.0625 12.8815 12.0187ZM13.4814 12.4875C13.5126 12.45 13.5064 12.4 13.4689 12.3687L13.0127 12.0125C12.9752 11.9875 12.9252 11.9938 12.894 12.0312C12.8627 12.0687 12.869 12.1187 12.9064 12.15L13.3626 12.5062C13.4001 12.5313 13.4501 12.5249 13.4813 12.4875H13.4814Z" fill="white"/>
<path d="M11.9563 11.9624C11.9938 11.925 12.0501 11.925 12.0813 11.9624L13.0063 12.8811C13.0439 12.9187 13.0376 12.9749 13.0063 13.0062C12.9689 13.0436 12.9126 13.0436 12.8813 13.0062L11.9563 12.0875C11.9251 12.0562 11.9251 11.9937 11.9563 11.9624V11.9624Z" fill="#F3F3F3"/>
<path d="M11.9563 11.9561C11.9746 11.9381 11.9993 11.928 12.0251 11.928C12.0508 11.928 12.0755 11.9381 12.0938 11.9561L13.0189 12.8748C13.0369 12.8932 13.047 12.9179 13.047 12.9436C13.047 12.9693 13.0369 12.994 13.0189 13.0124C13.0005 13.0304 12.9759 13.0405 12.9501 13.0405C12.9244 13.0405 12.8997 13.0304 12.8814 13.0124L11.9563 12.0937C11.9125 12.0561 11.9125 11.9937 11.9563 11.9561ZM13.0064 12.9999C13.0377 12.9686 13.0377 12.9124 13.0064 12.8811L12.0813 11.9624C12.0501 11.9312 11.9938 11.9312 11.9626 11.9624C11.9313 11.9936 11.9313 12.0499 11.9626 12.0811L12.8876 12.9999C12.9189 13.0374 12.9689 13.0374 13.0064 12.9999Z" fill="white"/>
<path d="M12.0125 12.8938C12.05 12.8626 12.1062 12.8626 12.1375 12.9L12.5188 13.3375C12.55 13.3751 12.5438 13.4313 12.5062 13.4626C12.4688 13.4938 12.4125 13.4938 12.3813 13.4563L12 13.0188C11.9687 12.9876 11.975 12.9313 12.0125 12.8938V12.8938Z" fill="#F3F3F3"/>
<path d="M12.0063 12.8936C12.0501 12.8561 12.1063 12.8623 12.1437 12.8998L12.525 13.3373C12.5625 13.3749 12.5562 13.4374 12.5125 13.4749C12.4688 13.5124 12.4125 13.5061 12.375 13.4686L11.9937 13.0311C11.9625 12.9874 11.9625 12.9249 12.0062 12.8936H12.0063ZM12.5063 13.4624C12.5437 13.4312 12.5437 13.3811 12.5188 13.3437L12.1375 12.9061C12.1062 12.8749 12.0562 12.8686 12.0188 12.8998C11.9813 12.9311 11.9813 12.9811 12.0062 13.0185L12.3875 13.4561C12.4188 13.4936 12.4688 13.4936 12.5062 13.4624H12.5063Z" fill="white"/>
<path d="M11.1125 12.6563C11.1563 12.625 11.2125 12.6375 11.2376 12.6813L11.9625 13.7625C11.9875 13.8063 11.975 13.8625 11.9375 13.8876C11.8938 13.9188 11.8375 13.9063 11.8125 13.8625L11.0875 12.7812C11.0625 12.7375 11.075 12.6812 11.1125 12.6563H11.1125Z" fill="#F3F3F3"/>
<path d="M11.1126 12.6499C11.1563 12.6187 11.2188 12.6312 11.2501 12.6749L11.9751 13.7562C12.0063 13.7999 11.9938 13.8624 11.9439 13.8936C11.9001 13.9249 11.8376 13.9124 11.8063 13.8687L11.0813 12.7874C11.0501 12.7375 11.0626 12.6812 11.1126 12.65V12.6499ZM11.9376 13.8812C11.9751 13.8562 11.9876 13.8062 11.9626 13.7687L11.2376 12.6874C11.2126 12.65 11.1626 12.6436 11.1189 12.6687C11.0813 12.6936 11.0688 12.7436 11.0939 12.7812L11.8188 13.8624C11.8439 13.8936 11.9001 13.9062 11.9375 13.8811L11.9376 13.8812Z" fill="white"/>
<path d="M10.9812 13.5813C11.025 13.5564 11.0812 13.5689 11.1062 13.6126L11.3937 14.1189C11.4187 14.1626 11.3999 14.2189 11.3562 14.2438C11.3124 14.2689 11.2562 14.2564 11.2312 14.2126L10.9438 13.7064C10.925 13.6626 10.9375 13.6064 10.9812 13.5814L10.9812 13.5813Z" fill="#F3F3F3"/>
<path d="M10.9814 13.575C11.0314 13.55 11.0877 13.5625 11.1127 13.6062L11.4002 14.1125C11.4252 14.1563 11.4127 14.2188 11.3627 14.2438C11.3127 14.2688 11.2564 14.2563 11.2314 14.2126L10.9439 13.7063C10.9189 13.6625 10.9314 13.6062 10.9813 13.575H10.9814ZM11.3564 14.2376C11.394 14.2126 11.4127 14.1626 11.3877 14.1251L11.1002 13.6188C11.0752 13.5813 11.0252 13.5688 10.9877 13.5875C10.9501 13.6125 10.9314 13.6625 10.9564 13.7L11.244 14.2063C11.2627 14.2438 11.3189 14.2626 11.3564 14.2375V14.2376Z" fill="white"/>
<path d="M10.15 13.1688C10.2 13.1501 10.25 13.1688 10.2688 13.2126L10.775 14.4187C10.7938 14.4624 10.7688 14.5187 10.725 14.5374C10.6813 14.5562 10.625 14.5374 10.6063 14.4937L10.1001 13.2876C10.0813 13.2438 10.1063 13.1876 10.15 13.1688Z" fill="#F3F3F3"/>
<path d="M10.1498 13.1624C10.1998 13.1437 10.2561 13.1624 10.2811 13.2124L10.7875 14.4188C10.7965 14.4428 10.7957 14.4694 10.7852 14.4929C10.7746 14.5163 10.7552 14.5346 10.7312 14.5437C10.6812 14.5625 10.6249 14.5437 10.6 14.4937L10.0936 13.2874C10.0749 13.2436 10.0999 13.1874 10.1498 13.1624V13.1624ZM10.7187 14.5313C10.7624 14.5125 10.7812 14.4625 10.7624 14.425L10.2561 13.2187C10.2374 13.1749 10.1874 13.1561 10.1436 13.1749C10.0999 13.1936 10.0811 13.2436 10.0999 13.2812L10.6062 14.4875C10.6312 14.5313 10.6749 14.55 10.7187 14.5313Z" fill="white"/>
<path d="M9.84365 14.0563C9.89372 14.0375 9.94365 14.0625 9.96243 14.1125L10.1437 14.6625C10.1624 14.7063 10.1312 14.7625 10.0875 14.775C10.0375 14.7938 9.98746 14.7688 9.96875 14.7188L9.78746 14.1688C9.76875 14.125 9.79372 14.075 9.84372 14.0563H9.84365Z" fill="#F3F3F3"/>
<path d="M9.83742 14.0499C9.86145 14.0409 9.88809 14.0417 9.91151 14.0523C9.93493 14.0628 9.95321 14.0822 9.96236 14.1062L10.1436 14.6562C10.1623 14.7062 10.1311 14.7624 10.081 14.7812C10.057 14.7903 10.0304 14.7894 10.007 14.7789C9.98354 14.7683 9.96526 14.7489 9.95611 14.7249L9.77492 14.175C9.7624 14.125 9.78743 14.0687 9.83742 14.0499ZM10.0811 14.7686C10.1248 14.7562 10.1498 14.7062 10.1374 14.6624L9.95611 14.1125C9.94366 14.0687 9.89367 14.0499 9.84993 14.0625C9.80614 14.075 9.78117 14.125 9.79369 14.1687L9.97488 14.7187C9.97806 14.7293 9.98344 14.7391 9.99068 14.7475C9.99791 14.7559 10.0068 14.7627 10.0168 14.7674C10.0269 14.7721 10.0378 14.7747 10.0488 14.7749C10.0599 14.7751 10.0709 14.773 10.0811 14.7687V14.7686Z" fill="white"/>
<path d="M9.1065 13.4876C9.15643 13.4751 9.20649 13.5063 9.21268 13.5563L9.47516 14.8377C9.48767 14.8876 9.45013 14.9314 9.40013 14.9439C9.35021 14.9564 9.30015 14.9252 9.29396 14.8751L9.03142 13.5938C9.02523 13.5501 9.05645 13.5001 9.10644 13.4876L9.1065 13.4876Z" fill="#F3F3F3"/>
<path d="M9.10638 13.4812C9.16257 13.4687 9.21257 13.5062 9.22509 13.5562L9.48761 14.8375C9.50012 14.8874 9.46257 14.9437 9.41257 14.9499C9.35631 14.9624 9.30631 14.925 9.29386 14.875L9.03128 13.5937C9.01883 13.5437 9.05012 13.4937 9.10631 13.4812L9.10638 13.4812ZM9.40006 14.9374C9.44386 14.9312 9.47509 14.8874 9.46883 14.8374L9.20631 13.5562C9.20012 13.5125 9.15012 13.4812 9.10631 13.4937C9.06257 13.4999 9.03134 13.5437 9.0376 13.5937L9.30012 14.875C9.31257 14.9187 9.35631 14.9437 9.40012 14.9375L9.40006 14.9374Z" fill="white"/>
<path d="M8.63134 14.3001C8.68134 14.2939 8.72508 14.3251 8.7376 14.3751L8.81256 14.9501C8.81882 15.0001 8.78134 15.0438 8.73128 15.0501C8.68134 15.0563 8.6376 15.0251 8.62509 14.9751L8.55012 14.4001C8.54386 14.3501 8.58135 14.3064 8.63134 14.3001Z" fill="#F3F3F3"/>
<path d="M8.6315 14.2936C8.68775 14.2874 8.73775 14.3249 8.74401 14.3749L8.81897 14.9499C8.82523 14.9999 8.78775 15.0499 8.73149 15.0562C8.67524 15.0624 8.62524 15.025 8.61898 14.9749L8.54402 14.3999C8.53776 14.3499 8.57524 14.2999 8.6315 14.2936ZM8.72523 15.0437C8.76897 15.0375 8.80652 14.9937 8.80026 14.9499L8.72523 14.3749C8.71898 14.3312 8.67524 14.2999 8.6315 14.3062C8.58776 14.3124 8.55021 14.3562 8.55647 14.3999L8.6315 14.975C8.63775 15.0187 8.68149 15.0499 8.72523 15.0437Z" fill="white"/>
<path d="M7.98754 13.5999C8.03753 13.5999 8.08127 13.6374 8.08127 13.6874V14.9936C8.08127 15.0436 8.03753 15.0812 7.98754 15.0812C7.93754 15.0812 7.8938 15.0436 7.8938 14.9936V13.6874C7.90006 13.6374 7.93754 13.5999 7.98754 13.5999Z" fill="#F3F3F3"/>
<path d="M7.98757 13.5938C8.04382 13.5938 8.08756 13.6375 8.08756 13.6875V14.9937C8.08756 15.0437 8.04382 15.0875 7.98757 15.0875C7.93131 15.0875 7.88757 15.0437 7.88757 14.9937V13.6876C7.88757 13.6376 7.93757 13.5938 7.98757 13.5938ZM7.98757 15.075C8.03131 15.075 8.07505 15.0376 8.07505 14.9937V13.6876C8.07505 13.6438 8.03757 13.6063 7.98757 13.6063C7.94383 13.6063 7.90009 13.6438 7.90009 13.6876V14.9937C7.90628 15.0376 7.94383 15.075 7.98757 15.075Z" fill="white"/>
<path d="M7.36249 14.3C7.41249 14.3063 7.44997 14.3437 7.44997 14.3937L7.40623 14.975C7.40004 15.025 7.35623 15.0625 7.30623 15.0563C7.25623 15.05 7.21875 15.0125 7.21875 14.9625L7.26249 14.3812C7.26875 14.3313 7.31249 14.2937 7.36249 14.3Z" fill="#F3F3F3"/>
<path d="M7.36252 14.2939C7.41878 14.3001 7.45627 14.3439 7.45627 14.3939L7.41252 14.9752C7.40627 15.0252 7.36252 15.0689 7.30627 15.0627C7.25007 15.0564 7.21252 15.0127 7.21252 14.9627L7.25627 14.3814C7.26252 14.3252 7.30627 14.2877 7.36252 14.2939ZM7.30627 15.0502C7.35001 15.0502 7.39381 15.0189 7.39381 14.9752L7.43756 14.3939C7.43756 14.3501 7.40627 14.3127 7.35627 14.3064C7.31252 14.3064 7.26878 14.3376 7.26878 14.3814L7.22504 14.9627C7.22504 15.0064 7.26252 15.044 7.30633 15.0502H7.30627Z" fill="white"/>
<path d="M6.89362 13.4876C6.94363 13.5001 6.97485 13.5438 6.9686 13.5938L6.71231 14.8751C6.6998 14.9251 6.65605 14.9564 6.60604 14.9438C6.55604 14.9313 6.52481 14.8876 6.53107 14.8375L6.78735 13.5563C6.79361 13.5126 6.84362 13.4814 6.89362 13.4876Z" fill="#F3F3F3"/>
<path d="M6.89364 13.4812C6.94984 13.4937 6.98113 13.5438 6.97487 13.5937L6.71861 14.8751C6.7061 14.9251 6.6561 14.9626 6.5999 14.95C6.54364 14.9375 6.51235 14.8875 6.51861 14.8375L6.77487 13.5562C6.78739 13.5062 6.83739 13.475 6.89358 13.4813L6.89364 13.4812ZM6.5999 14.9375C6.64364 14.9438 6.68739 14.9188 6.6999 14.8751L6.9561 13.5937C6.96235 13.55 6.93739 13.5062 6.88739 13.4937C6.84364 13.4875 6.7999 13.5125 6.78739 13.5563L6.53113 14.8375C6.52487 14.8875 6.5561 14.9251 6.5999 14.9375V14.9375Z" fill="white"/>
<path d="M6.14377 14.05C6.19383 14.0626 6.22506 14.1126 6.21254 14.1625L6.05628 14.725C6.04383 14.775 5.99383 14.8 5.94383 14.7875C5.93192 14.7847 5.92069 14.7795 5.91079 14.7723C5.90088 14.7651 5.8925 14.756 5.88611 14.7455C5.87972 14.7351 5.87546 14.7235 5.87356 14.7114C5.87166 14.6993 5.87217 14.6869 5.87506 14.675L6.03132 14.1126C6.04383 14.0626 6.09383 14.0376 6.14383 14.05H6.14377Z" fill="#F3F3F3"/>
<path d="M6.14375 14.0438C6.19381 14.0563 6.23129 14.1125 6.21252 14.1625L6.05627 14.7251C6.04381 14.7751 5.98756 14.8063 5.93756 14.7938C5.88756 14.7813 5.85008 14.7251 5.86879 14.6751L6.02504 14.1125C6.03756 14.0625 6.08756 14.0313 6.14375 14.0438V14.0438ZM5.93756 14.7751C5.9813 14.7876 6.0313 14.7625 6.04381 14.7188L6.2 14.1563C6.21252 14.1125 6.18755 14.0688 6.13755 14.0563C6.09381 14.0438 6.04381 14.0688 6.0313 14.1125L5.87505 14.6751C5.86879 14.7188 5.89375 14.7625 5.93756 14.7751Z" fill="white"/>
<path d="M5.83774 13.1686C5.88774 13.1873 5.90645 13.2436 5.88774 13.2873L5.38773 14.4936C5.36902 14.5374 5.3127 14.5623 5.26902 14.5374C5.22521 14.5123 5.20018 14.4623 5.21895 14.4186L5.71897 13.2124C5.73768 13.1686 5.794 13.1436 5.83768 13.1686H5.83774Z" fill="#F3F3F3"/>
<path d="M5.83749 13.1624C5.86151 13.1715 5.88091 13.1898 5.89146 13.2133C5.90201 13.2367 5.90283 13.2634 5.89375 13.2874L5.39374 14.4937C5.37497 14.5437 5.31871 14.5624 5.26245 14.5437C5.23845 14.5345 5.21905 14.5162 5.20851 14.4928C5.19797 14.4694 5.19713 14.4427 5.20619 14.4187L5.7062 13.2124C5.73123 13.1624 5.78749 13.1374 5.83749 13.1624V13.1624ZM5.26871 14.5312C5.31245 14.5499 5.36245 14.5312 5.38123 14.4875L5.88123 13.2812C5.89994 13.2374 5.87498 13.1936 5.83123 13.1749C5.78749 13.1562 5.73749 13.1749 5.71872 13.2186L5.21871 14.4249C5.20619 14.4624 5.22496 14.5124 5.26871 14.5312Z" fill="white"/>
<path d="M4.99406 13.5688C5.03781 13.5938 5.05652 13.6438 5.03781 13.6875L4.77526 14.2063C4.75023 14.2501 4.70022 14.2688 4.65021 14.2438C4.60647 14.2188 4.58775 14.1688 4.60647 14.1251L4.86908 13.6064C4.89405 13.5626 4.94406 13.5438 4.99406 13.5688Z" fill="#F3F3F3"/>
<path d="M4.99365 13.5625C5.04365 13.5875 5.06236 13.6438 5.03739 13.6937L4.77487 14.2125C4.74984 14.2625 4.69359 14.2813 4.64365 14.2562C4.59365 14.2313 4.57488 14.1749 4.59991 14.125L4.86236 13.6063C4.88739 13.5563 4.94365 13.5376 4.99365 13.5625ZM4.64991 14.2438C4.69365 14.2625 4.74365 14.25 4.76236 14.2062L5.02487 13.6875C5.04358 13.65 5.02487 13.6 4.98739 13.575C4.94365 13.5563 4.89365 13.5688 4.87487 13.6125L4.61236 14.1312C4.59365 14.1687 4.61236 14.2187 4.64991 14.2437V14.2438Z" fill="white"/>
<path d="M4.86867 12.6439C4.91241 12.6751 4.92493 12.7314 4.8937 12.7688L4.16868 13.8502C4.14371 13.8939 4.08739 13.9001 4.04371 13.8752C3.99997 13.8439 3.98745 13.7877 4.01868 13.7501L4.7437 12.6688C4.76867 12.6251 4.82493 12.6126 4.86867 12.6438V12.6439Z" fill="#F3F3F3"/>
<path d="M4.86888 12.6375C4.91262 12.6687 4.92513 12.7313 4.9001 12.775L4.17514 13.8562C4.14391 13.8999 4.08766 13.9124 4.03766 13.8812C3.99392 13.8499 3.9814 13.7875 4.00637 13.7437L4.73139 12.6625C4.76262 12.6187 4.82513 12.6062 4.86888 12.6375V12.6375ZM4.04391 13.8687C4.08133 13.8937 4.13766 13.8874 4.16262 13.85L4.88765 12.7687C4.91262 12.7313 4.90017 12.6813 4.86262 12.6562C4.82513 12.6313 4.76888 12.6375 4.74391 12.6749L4.01888 13.7499C3.99392 13.7875 4.00637 13.8437 4.04391 13.8686V13.8687Z" fill="white"/>
<path d="M3.95599 12.875C3.99354 12.9062 4.00599 12.9625 3.97476 13L3.61223 13.4562C3.581 13.4937 3.52474 13.4999 3.48726 13.4687C3.44977 13.4375 3.43725 13.3812 3.46854 13.3437L3.83101 12.8875C3.86224 12.85 3.9185 12.8437 3.95599 12.875Z" fill="#F3F3F3"/>
<path d="M3.9625 12.8689C4.00624 12.9001 4.0125 12.9626 3.98121 13.0064L3.61875 13.4626C3.58752 13.5064 3.52501 13.5126 3.48126 13.4751C3.43752 13.4439 3.43126 13.3814 3.46255 13.3376L3.82501 12.8814C3.85624 12.8376 3.91875 12.8314 3.9625 12.8689ZM3.49378 13.4626C3.5312 13.4939 3.58127 13.4877 3.61249 13.4501L3.97501 12.9938C4.00005 12.9564 3.99372 12.9064 3.9563 12.8751C3.91875 12.8438 3.86875 12.8501 3.83753 12.8876L3.47501 13.3439C3.45004 13.3814 3.4563 13.4376 3.49372 13.4626H3.49378Z" fill="white"/>
<path d="M4.01878 11.9376C4.05627 11.975 4.05627 12.0313 4.01878 12.0626L3.09384 12.9813C3.05629 13.0188 3.0001 13.0126 2.96881 12.9813C2.93759 12.95 2.93133 12.8875 2.96881 12.8563L3.8875 11.9376C3.92504 11.9 3.9813 11.9 4.01878 11.9376V11.9376Z" fill="#F3F3F3"/>
<path d="M4.02518 11.9312C4.04319 11.9495 4.05328 11.9742 4.05328 11.9999C4.05328 12.0256 4.04319 12.0503 4.02518 12.0686L3.10015 12.9875C3.08181 13.0055 3.05714 13.0156 3.03144 13.0156C3.00574 13.0156 2.98107 13.0055 2.96273 12.9875C2.94468 12.9691 2.93457 12.9444 2.93457 12.9187C2.93457 12.893 2.94468 12.8683 2.96273 12.8499L3.8877 11.9312C3.90604 11.9132 3.93072 11.9031 3.95644 11.9031C3.98215 11.9031 4.00684 11.9132 4.02518 11.9312V11.9312ZM2.96892 12.9812C3.00015 13.0124 3.05641 13.0124 3.08763 12.9812L4.01266 12.0624C4.04395 12.0311 4.04395 11.9749 4.01266 11.9437C3.98144 11.9124 3.92518 11.9124 3.89395 11.9437L2.96892 12.8624C2.9377 12.8936 2.9377 12.9437 2.96892 12.9811V12.9812Z" fill="white"/>
<path d="M3.08124 11.9876C3.11247 12.025 3.11247 12.0814 3.07499 12.1126L2.63124 12.4876C2.59376 12.5188 2.5375 12.5126 2.50621 12.4751C2.47499 12.4375 2.47499 12.3814 2.51247 12.3501L2.95621 11.9751C2.99376 11.9438 3.04995 11.9501 3.08124 11.9876Z" fill="#F3F3F3"/>
<path d="M3.08745 11.9811C3.12494 12.025 3.11868 12.0874 3.08119 12.1187L2.63745 12.4936C2.59997 12.5312 2.53745 12.5249 2.49996 12.4812C2.46242 12.4374 2.46867 12.3749 2.50616 12.3436L2.94997 11.9687C2.98739 11.9312 3.04997 11.9375 3.08739 11.9812L3.08745 11.9811ZM2.51242 12.4749C2.54371 12.5124 2.59371 12.5124 2.63113 12.4874L3.07494 12.1124C3.10616 12.0812 3.11242 12.0311 3.08119 11.9937C3.0499 11.9562 2.9999 11.9562 2.96248 11.9812L2.51867 12.3562C2.48119 12.3874 2.48119 12.4374 2.51242 12.4749V12.4749Z" fill="white"/>
<path d="M3.33141 11.0875C3.36264 11.1313 3.35012 11.1875 3.30638 11.2126L2.21889 11.9376C2.17515 11.9626 2.11889 11.9501 2.09392 11.9126C2.06263 11.8688 2.07515 11.8126 2.11889 11.7875L3.20645 11.0626C3.24399 11.0376 3.30019 11.05 3.33148 11.0875H3.33141Z" fill="#F3F3F3"/>
<path d="M3.33754 11.0875C3.36876 11.1314 3.35624 11.1938 3.3125 11.2251L2.22504 11.9501C2.1813 11.9813 2.11878 11.9688 2.08756 11.9188C2.05627 11.8751 2.06885 11.8126 2.11253 11.7813L3.20005 11.0563C3.2438 11.0251 3.30625 11.0376 3.33747 11.0875H3.33754ZM2.10007 11.9063C2.12504 11.9438 2.17504 11.9563 2.21252 11.9313L3.29999 11.2063C3.33754 11.1814 3.34999 11.1314 3.31876 11.0876C3.29379 11.0501 3.2438 11.0376 3.20625 11.0626L2.11878 11.7876C2.0813 11.8188 2.07504 11.8688 2.10007 11.9063V11.9063Z" fill="white"/>
<path d="M2.40007 10.9562C2.42511 10.9999 2.41259 11.0562 2.36885 11.0812L1.86258 11.3687C1.81884 11.3937 1.76258 11.375 1.73761 11.3312C1.71258 11.2875 1.7251 11.2312 1.76884 11.2062L2.2751 10.9187C2.31885 10.8937 2.37511 10.9124 2.40014 10.9562H2.40007Z" fill="#F3F3F3"/>
<path d="M2.40638 10.9501C2.43135 11.0001 2.41883 11.0563 2.37509 11.0814L1.86884 11.3689C1.8251 11.3938 1.76258 11.3751 1.73761 11.3314C1.71258 11.2814 1.7251 11.2251 1.76884 11.2001L2.27509 10.9126C2.31883 10.8875 2.38135 10.9063 2.40632 10.9501H2.40638ZM1.74381 11.3251C1.76884 11.3689 1.81884 11.3814 1.85632 11.3563L2.36257 11.0688C2.40006 11.0438 2.41257 10.9938 2.39386 10.9563C2.36883 10.9126 2.31883 10.9001 2.28135 10.9251L1.7751 11.2126C1.73761 11.2313 1.7251 11.2814 1.74387 11.3251H1.74381Z" fill="white"/>
<path d="M2.81876 10.125C2.83747 10.175 2.81876 10.225 2.76876 10.2437L1.5625 10.7437C1.51876 10.7625 1.4625 10.7375 1.44379 10.6937C1.42501 10.6437 1.44379 10.5937 1.49379 10.575L2.70005 10.075C2.74379 10.0563 2.80005 10.075 2.81876 10.125V10.125Z" fill="#F3F3F3"/>
<path d="M2.82501 10.1186C2.84372 10.1686 2.82501 10.2249 2.77501 10.2499L1.56876 10.7499C1.54472 10.7589 1.51807 10.7581 1.49465 10.7476C1.47123 10.737 1.45294 10.7176 1.44379 10.6936C1.42501 10.6436 1.44379 10.5874 1.49379 10.5624L2.70005 10.0624C2.72408 10.0533 2.75073 10.0542 2.77415 10.0647C2.79757 10.0753 2.81586 10.0946 2.82501 10.1186V10.1186ZM1.45624 10.6874C1.47501 10.7312 1.52501 10.7499 1.5625 10.7374L2.76876 10.2374C2.8125 10.2186 2.83127 10.1686 2.8125 10.1249C2.79379 10.0812 2.74379 10.0624 2.70624 10.0749L1.49998 10.5749C1.45624 10.5936 1.43753 10.6436 1.45624 10.6874V10.6874Z" fill="white"/>
<path d="M1.93737 9.81246C1.95608 9.86246 1.93111 9.91246 1.88112 9.93117L1.33112 10.1125C1.28738 10.1312 1.23113 10.0999 1.21861 10.0562C1.1999 10.0062 1.22487 9.95621 1.27487 9.9375L1.82486 9.75621C1.8686 9.7375 1.9186 9.76247 1.93737 9.81246Z" fill="#F3F3F3"/>
<path d="M1.94358 9.8064C1.96236 9.8564 1.93739 9.91265 1.88113 9.93142L1.33112 10.1126C1.28112 10.1313 1.22486 10.1001 1.20609 10.0501C1.18738 10.0001 1.21235 9.94388 1.26867 9.92517L1.81861 9.74389C1.86861 9.73144 1.92487 9.7564 1.94365 9.80647L1.94358 9.8064ZM1.21867 10.0439C1.23119 10.0877 1.28119 10.1127 1.32493 10.1002L1.87493 9.91891C1.91868 9.90646 1.93745 9.85646 1.92494 9.81272C1.91242 9.76898 1.86242 9.74395 1.81868 9.75647L1.26867 9.93775C1.22493 9.95645 1.20615 10.0002 1.21867 10.0439Z" fill="white"/>
<path d="M2.49979 9.06899C2.51224 9.11899 2.48101 9.169 2.43101 9.17526L1.14973 9.42529C1.09973 9.43781 1.05599 9.40025 1.04354 9.35025C1.03102 9.30024 1.06225 9.25023 1.11224 9.24398L2.39353 8.99394C2.44353 8.98775 2.49353 9.01898 2.49972 9.06899H2.49979Z" fill="#F3F3F3"/>
<path d="M2.51275 9.06876C2.52527 9.12502 2.48778 9.17503 2.43778 9.18748L1.15651 9.43752C1.10651 9.45003 1.05651 9.41254 1.04405 9.35628C1.03154 9.30001 1.06902 9.25001 1.11902 9.23755L2.4003 8.98752C2.45023 8.975 2.5003 9.01249 2.51275 9.06876ZM1.05651 9.35009C1.06276 9.39377 1.10651 9.42506 1.15025 9.4188L2.43152 9.16877C2.47527 9.16251 2.50649 9.11251 2.49404 9.06876C2.48778 9.02501 2.44404 8.99372 2.40023 8.99998L1.11902 9.25001C1.07528 9.26253 1.04405 9.30627 1.05651 9.35002V9.35009Z" fill="white"/>
<path d="M1.70001 8.58758C1.70621 8.63752 1.67498 8.68132 1.62498 8.68758L1.05001 8.75628C0.999949 8.76254 0.956207 8.72506 0.950014 8.675C0.943756 8.62507 0.974981 8.58133 1.02498 8.575L1.60001 8.5063C1.64376 8.50004 1.69376 8.53752 1.70001 8.58758Z" fill="#F3F3F3"/>
<path d="M1.70631 8.58749C1.71251 8.64367 1.67502 8.69367 1.62502 8.69993L1.05006 8.76869C0.999992 8.77495 0.950057 8.73747 0.943799 8.68122C0.937541 8.62497 0.975024 8.57497 1.02502 8.56871L1.60006 8.49995C1.64999 8.49369 1.70006 8.53123 1.70625 8.58742L1.70631 8.58749ZM0.949992 8.67496C0.95625 8.7187 1.00006 8.75624 1.0438 8.74992L1.61877 8.68122C1.66251 8.67496 1.6938 8.63122 1.68754 8.58749C1.68128 8.54368 1.63754 8.5062 1.5938 8.51246L1.01877 8.58123C0.975024 8.58749 0.943799 8.63122 0.949992 8.67496V8.67496Z" fill="white"/>
<path d="M2.39998 7.98119C2.39998 8.03125 2.36256 8.07499 2.31249 8.07499H1.00631C0.956307 8.07499 0.918823 8.03125 0.918823 7.98125C0.918823 7.93125 0.956307 7.88745 1.00631 7.88745H2.31256C2.36256 7.88745 2.40011 7.93125 2.40011 7.98125L2.39998 7.98119Z" fill="#F3F3F3"/>
<path d="M2.40634 7.9811C2.40634 8.03742 2.36253 8.0811 2.31253 8.0811H1.00634C0.95634 8.0811 0.912598 8.03736 0.912598 7.9811C0.912598 7.92491 0.95634 7.8811 1.00634 7.8811H2.3126C2.3626 7.8811 2.40634 7.92491 2.40634 7.9811ZM0.925049 7.97491C0.925049 8.01865 0.962533 8.06239 1.00634 8.06239H2.31253C2.35628 8.06239 2.39382 8.0249 2.39382 7.97491C2.39382 7.93117 2.35628 7.88736 2.31253 7.88736H1.00634C0.962598 7.89362 0.925114 7.93117 0.925114 7.97491H0.925049Z" fill="white"/>
<path d="M1.70634 7.35004C1.70002 7.40004 1.66253 7.43752 1.61253 7.43752L1.03124 7.39378C0.981302 7.38752 0.943817 7.34378 0.950011 7.29378C0.956269 7.24378 0.993818 7.2063 1.04382 7.2063L1.62505 7.25004C1.66879 7.2563 1.70634 7.30004 1.70634 7.35004Z" fill="#E2E2E2"/>
<path d="M1.71268 7.34995C1.70642 7.40621 1.66268 7.44369 1.61268 7.44369L1.03138 7.39995C0.981442 7.39369 0.9377 7.34995 0.943958 7.29369C0.950152 7.2375 0.993959 7.19995 1.04396 7.19995L1.62519 7.24369C1.6752 7.24995 1.71268 7.29995 1.71268 7.34995ZM0.950152 7.29369C0.943958 7.33743 0.981442 7.38124 1.02519 7.38124L1.60648 7.42498C1.65016 7.42498 1.68771 7.39369 1.69397 7.34369C1.70023 7.29995 1.66268 7.25621 1.61894 7.25621L1.03764 7.21247C0.993959 7.21247 0.95641 7.24995 0.950152 7.29376V7.29369Z" fill="white"/>
<path d="M2.51261 6.89391C2.50009 6.94391 2.45635 6.9752 2.40635 6.96894L1.12512 6.70644C1.07512 6.69392 1.04383 6.65018 1.05635 6.60019C1.06887 6.55019 1.11261 6.5189 1.16261 6.52522L2.4439 6.78147C2.48764 6.79392 2.51886 6.84392 2.51261 6.89391V6.89391Z" fill="#F3F3F3"/>
<path d="M2.51849 6.89358C2.50598 6.94984 2.45598 6.98113 2.40598 6.97487L1.12476 6.71861C1.07476 6.7061 1.03728 6.6561 1.04979 6.5999C1.06224 6.54358 1.11224 6.51236 1.16224 6.51861L2.44353 6.77487C2.49353 6.78739 2.52475 6.83738 2.51849 6.89358V6.89358ZM1.06224 6.59984C1.05599 6.64358 1.08095 6.68732 1.12476 6.69984L2.40604 6.95609C2.44978 6.96235 2.49353 6.93738 2.50604 6.88732C2.51224 6.84358 2.48727 6.79984 2.44346 6.78732L1.16231 6.53113C1.11231 6.52487 1.07482 6.5561 1.06231 6.59984H1.06224Z" fill="white"/>
<path d="M1.95007 6.14394C1.9472 6.15584 1.94202 6.16707 1.93481 6.17696C1.9276 6.18686 1.91851 6.19524 1.90806 6.20162C1.89761 6.208 1.886 6.21226 1.87391 6.21415C1.86181 6.21604 1.84946 6.21553 1.83756 6.21265L1.27503 6.0564C1.22503 6.04388 1.20007 5.99388 1.21252 5.94389C1.21539 5.93198 1.22057 5.92076 1.22778 5.91087C1.23499 5.90097 1.24408 5.89259 1.25453 5.88621C1.26498 5.87983 1.27659 5.87557 1.28869 5.87368C1.30078 5.87179 1.31314 5.8723 1.32504 5.87518L1.88756 6.03143C1.93756 6.04388 1.96253 6.09388 1.95007 6.14388V6.14394Z" fill="#F3F3F3"/>
<path d="M1.95637 6.14369C1.94392 6.19361 1.88766 6.23116 1.83766 6.21239L1.27515 6.05615C1.22515 6.04364 1.19386 5.98739 1.20637 5.93746C1.21889 5.8874 1.27515 5.84992 1.32515 5.86869L1.88766 6.02493C1.93766 6.03744 1.96895 6.08744 1.95637 6.14362V6.14369ZM1.22515 5.93733C1.21263 5.98113 1.23766 6.03112 1.28141 6.04357L1.84392 6.19981C1.88766 6.21232 1.9314 6.18729 1.94392 6.1373C1.95637 6.09356 1.9314 6.04357 1.88766 6.03112L1.32515 5.87489C1.28141 5.86863 1.23766 5.89359 1.22515 5.93739V5.93733Z" fill="white"/>
<path d="M2.83151 5.84365C2.8128 5.89358 2.75648 5.91236 2.7128 5.89358L1.50648 5.39361C1.46273 5.37491 1.43777 5.31865 1.45648 5.27491C1.47525 5.22492 1.53151 5.20614 1.57525 5.22492L2.78151 5.72488C2.83151 5.74359 2.85028 5.79985 2.83151 5.84359V5.84365Z" fill="#F3F3F3"/>
<path d="M2.83763 5.85012C2.82848 5.87414 2.81018 5.89354 2.78674 5.90409C2.7633 5.91464 2.73664 5.91546 2.7126 5.90638L1.50633 5.40639C1.45633 5.38768 1.43762 5.33142 1.45633 5.27516C1.46549 5.25115 1.48379 5.23174 1.50722 5.2212C1.53066 5.21065 1.55732 5.20983 1.58137 5.21891L2.78763 5.7189C2.83763 5.74387 2.85634 5.80019 2.83763 5.85012V5.85012ZM1.46885 5.28142C1.45014 5.32516 1.46885 5.37516 1.51259 5.39387L2.71886 5.89386C2.7626 5.91264 2.80634 5.88761 2.82512 5.84386C2.84383 5.80012 2.82512 5.75012 2.78137 5.73141L1.57511 5.23142C1.53137 5.21891 1.48137 5.23768 1.46885 5.28142V5.28142Z" fill="white"/>
<path d="M2.42495 4.99998C2.39998 5.04372 2.34998 5.0625 2.30624 5.04372L1.78747 4.78126C1.74373 4.76248 1.72495 4.70622 1.74998 4.65622C1.77495 4.61248 1.82495 4.5937 1.86869 4.61248L2.3874 4.87501C2.43121 4.89997 2.44998 4.9563 2.42495 4.99998Z" fill="#F3F3F3"/>
<path d="M2.4311 5.00632C2.40607 5.05632 2.34981 5.0751 2.29981 5.05006L1.7811 4.78756C1.7311 4.7626 1.71233 4.70634 1.73736 4.65634C1.76233 4.60635 1.81865 4.58757 1.86858 4.6126L2.38729 4.87511C2.43736 4.89381 2.45607 4.95639 2.4311 5.00632V5.00632ZM1.75607 4.6626C1.73736 4.70634 1.74988 4.75634 1.79362 4.77511L2.31232 5.03761C2.34987 5.05632 2.39987 5.03761 2.42484 5.00007C2.44355 4.95633 2.4311 4.90633 2.38736 4.88756L1.86226 4.62518C1.82478 4.60647 1.77478 4.61893 1.756 4.66266L1.75607 4.6626Z" fill="white"/>
<path d="M3.34382 4.88137C3.3126 4.92518 3.2626 4.9377 3.21886 4.9064L2.13759 4.18767C2.09391 4.16264 2.08765 4.10638 2.11262 4.06263C2.13765 4.01889 2.19391 4.00637 2.23765 4.0376L3.32511 4.76266C3.3626 4.78769 3.37511 4.84395 3.34382 4.88137Z" fill="#F3F3F3"/>
<path d="M3.34994 4.88742C3.31871 4.93122 3.2562 4.94368 3.21252 4.91871L2.13124 4.19367C2.08749 4.16245 2.07498 4.10619 2.1062 4.05626C2.13749 4.01245 2.20001 3.99993 2.24375 4.02497L3.32497 4.74993C3.37497 4.78122 3.38123 4.84368 3.34994 4.88742ZM2.11872 4.06245C2.09375 4.09993 2.10001 4.15619 2.13743 4.18116L3.22497 4.90626C3.26245 4.93129 3.31245 4.91877 3.33749 4.88129C3.36245 4.84374 3.3562 4.78748 3.31878 4.76251L2.23117 4.03748C2.19369 4.01245 2.14369 4.02497 2.11865 4.06245H2.11872Z" fill="white"/>
<path d="M3.11252 3.97506C3.08129 4.01254 3.02503 4.02506 2.98755 3.99377L2.53128 3.63756C2.4938 3.60627 2.48754 3.55001 2.51877 3.51252C2.54999 3.47504 2.60625 3.46252 2.6438 3.49381L3.1 3.85002C3.13755 3.88131 3.14381 3.93751 3.11252 3.97506V3.97506Z" fill="#F3F3F3"/>
<path d="M3.1187 3.98118C3.08747 4.02499 3.02496 4.03124 2.98121 3.99995L2.52496 3.64376C2.48122 3.61254 2.47497 3.55002 2.50626 3.50635C2.53748 3.46254 2.6 3.45628 2.64367 3.48757L3.09992 3.84376C3.14373 3.87505 3.14999 3.9375 3.1187 3.98131V3.98118ZM2.51871 3.51248C2.48748 3.54996 2.49374 3.59996 2.53122 3.63118L2.98747 3.9875C3.02496 4.01247 3.07495 4.00621 3.10618 3.96873C3.13747 3.93124 3.13121 3.88125 3.09373 3.85002L2.63748 3.4937C2.6 3.46874 2.54993 3.47499 2.51877 3.51248H2.51871Z" fill="white"/>
<path d="M4.044 4.03739C4.00658 4.07494 3.95026 4.07494 3.91903 4.03739L2.98788 3.11867C2.95039 3.08119 2.95659 3.02493 2.98788 2.99364C3.02536 2.95622 3.08162 2.95622 3.11285 2.99364L4.03787 3.91242C4.07535 3.94365 4.07535 4.00616 4.04413 4.03746L4.044 4.03739Z" fill="#F3F3F3"/>
<path d="M4.04392 4.04374C4.02558 4.06174 4.00091 4.07183 3.97521 4.07183C3.94951 4.07183 3.92483 4.06174 3.9065 4.04374L2.98141 3.1249C2.96336 3.10656 2.95325 3.08186 2.95325 3.05613C2.95325 3.0304 2.96336 3.0057 2.98141 2.98736C2.99975 2.96933 3.02443 2.95923 3.05015 2.95923C3.07586 2.95923 3.10055 2.96933 3.11889 2.98736L4.04392 3.90612C4.08766 3.94361 4.08766 4.00612 4.04392 4.04361V4.04374ZM2.99405 2.99987C2.96276 3.03116 2.96276 3.08742 2.99405 3.11858L3.91901 4.03735C3.9503 4.06864 4.0065 4.06864 4.03772 4.03735C4.06901 4.00612 4.06901 3.94987 4.03772 3.91864L3.11276 2.99368C3.08153 2.96245 3.03147 2.96245 2.99405 2.99994V2.99987Z" fill="white"/>
<path d="M3.98757 3.1061C3.95009 3.13739 3.89383 3.13739 3.86254 3.09985L3.48126 2.66236C3.4501 2.62488 3.45629 2.56862 3.49384 2.53739C3.53126 2.5061 3.58758 2.5061 3.6188 2.54359L4.00009 2.98114C4.03132 3.01236 4.02506 3.06862 3.98757 3.1061Z" fill="#F3F3F3"/>
<path d="M3.9937 3.10621C3.94996 3.1437 3.8937 3.1375 3.85615 3.09995L3.47492 2.66247C3.43744 2.62498 3.4437 2.56247 3.48744 2.52498C3.53118 2.48743 3.58744 2.49369 3.62492 2.53124L4.00621 2.96866C4.03744 3.01247 4.03744 3.07499 3.9937 3.10621V3.10621ZM3.4937 2.5375C3.45615 2.56873 3.45615 2.61873 3.48118 2.65621L3.86247 3.0937C3.8937 3.12499 3.9437 3.13124 3.98118 3.09995C4.01867 3.06873 4.01867 3.01866 3.9937 2.98124L3.61241 2.54369C3.58118 2.50627 3.53112 2.50627 3.4937 2.5375V2.5375Z" fill="white"/>
<path d="M4.88759 3.34383C4.84385 3.37506 4.78759 3.36254 4.76256 3.3188L4.03134 2.23752C4.0063 2.19378 4.01882 2.13752 4.0563 2.11255C4.10005 2.08133 4.1563 2.09384 4.18134 2.13758L4.9063 3.2188C4.93759 3.26254 4.92507 3.3188 4.88759 3.34377V3.34383Z" fill="#F3F3F3"/>
<path d="M4.8877 3.34994C4.84396 3.38123 4.78145 3.36865 4.75016 3.32497L4.0252 2.24367C3.99397 2.19993 4.00649 2.13748 4.05642 2.10625C4.10016 2.07496 4.16268 2.08748 4.19397 2.13122L4.91893 3.21245C4.95016 3.26245 4.93764 3.31871 4.8877 3.34994ZM4.06261 2.1187C4.02513 2.14367 4.01262 2.19367 4.03765 2.23122L4.76261 3.31245C4.78764 3.34994 4.83764 3.3562 4.88132 3.33116C4.91887 3.30619 4.93138 3.25619 4.90635 3.21871L4.18145 2.14367C4.15642 2.10625 4.10016 2.09367 4.06274 2.1187H4.06261Z" fill="white"/>
<path d="M5.01856 2.41865C4.97481 2.44362 4.91855 2.43117 4.89359 2.38743L4.60603 1.88117C4.58106 1.83743 4.59977 1.78117 4.64358 1.75614C4.68732 1.73117 4.74358 1.74362 4.76855 1.78743L5.05604 2.29362C5.07481 2.33736 5.0623 2.39362 5.01862 2.41865H5.01856Z" fill="#F3F3F3"/>
<path d="M5.01865 2.42492C4.96865 2.44988 4.91239 2.43743 4.88742 2.39363L4.59988 1.88743C4.57491 1.84362 4.58742 1.78117 4.63742 1.75614C4.68742 1.73117 4.74368 1.74362 4.76865 1.78743L5.05613 2.29362C5.08116 2.33737 5.06865 2.39363 5.01871 2.42492H5.01865ZM4.64368 1.7624C4.60613 1.78736 4.58742 1.83736 4.61239 1.87491L4.89994 2.38117C4.92491 2.41859 4.97491 2.43117 5.01239 2.4124C5.04994 2.38743 5.06865 2.33737 5.04368 2.29988L4.75613 1.79362C4.73742 1.7562 4.68117 1.73736 4.64368 1.7624V1.7624Z" fill="white"/>
<path d="M5.85025 2.83138C5.80031 2.85009 5.75025 2.83138 5.73154 2.78764L5.22528 1.58132C5.20657 1.53758 5.23153 1.48132 5.27528 1.46255C5.32528 1.44384 5.37528 1.46255 5.39399 1.50629L5.90025 2.71255C5.91902 2.75629 5.89405 2.81255 5.85025 2.83126V2.83138Z" fill="#F3F3F3"/>
<path d="M5.84978 2.83762C5.79984 2.85633 5.74359 2.83762 5.71856 2.78755L5.21232 1.58137C5.20324 1.55732 5.20406 1.53066 5.2146 1.50722C5.22515 1.48379 5.24456 1.46549 5.26857 1.45633C5.31857 1.43762 5.37483 1.45633 5.39986 1.50633L5.90603 2.71258C5.92481 2.75633 5.89984 2.81258 5.84984 2.83762H5.84978ZM5.28109 1.46885C5.23735 1.48756 5.21857 1.53762 5.23735 1.57511L5.74352 2.78129C5.76223 2.82504 5.81223 2.84375 5.85597 2.82504C5.89971 2.80633 5.91855 2.75626 5.89971 2.71878L5.39353 1.51253C5.3685 1.46879 5.32476 1.45001 5.28102 1.46879L5.28109 1.46885Z" fill="white"/>
<path d="M6.15636 1.94371C6.10636 1.96242 6.05636 1.93739 6.03765 1.88746L5.85636 1.3374C5.83765 1.29366 5.86888 1.2374 5.91262 1.22495C5.95636 1.21243 6.01262 1.2312 6.03133 1.2812L6.21262 1.8312C6.23133 1.87494 6.20636 1.92494 6.15636 1.94365V1.94371Z" fill="#F3F3F3"/>
<path d="M6.16265 1.95011C6.13862 1.95917 6.11198 1.95834 6.08856 1.94779C6.06514 1.93725 6.04685 1.91785 6.0377 1.89385L5.85643 1.34385C5.83773 1.29385 5.86895 1.23766 5.91901 1.21889C5.94304 1.20983 5.96968 1.21066 5.9931 1.2212C6.01652 1.23175 6.03481 1.25114 6.04396 1.27514L6.22516 1.82514C6.23768 1.87514 6.21265 1.9314 6.16265 1.95011V1.95011ZM5.91894 1.2314C5.87521 1.24385 5.85018 1.29385 5.86269 1.3376L6.04396 1.88766C6.05641 1.9314 6.1064 1.95011 6.1502 1.9376C6.19394 1.92514 6.2189 1.87514 6.20639 1.8314L6.02519 1.28134C6.022 1.27073 6.01662 1.26091 6.00939 1.25252C6.00216 1.24413 5.99324 1.23735 5.98322 1.23263C5.97319 1.22792 5.96229 1.22536 5.95122 1.22514C5.94014 1.22492 5.92915 1.22703 5.91894 1.23134V1.2314Z" fill="white"/>
<path d="M6.89365 2.51248C6.84365 2.525 6.79365 2.49377 6.78739 2.44371L6.52489 1.16249C6.51237 1.11249 6.54992 1.06875 6.59985 1.05623C6.64991 1.04371 6.69985 1.07494 6.70611 1.125L6.96867 2.40629C6.97487 2.44996 6.94364 2.49996 6.89365 2.51248V2.51248Z" fill="#F3F3F3"/>
<path d="M6.89373 2.51881C6.83747 2.53132 6.78747 2.49378 6.77495 2.44378L6.51244 1.16255C6.49992 1.11255 6.53747 1.05629 6.58747 1.05003C6.64373 1.03752 6.69373 1.07507 6.70618 1.12507L6.96876 2.40636C6.98121 2.45629 6.94999 2.50636 6.89373 2.51881V2.51881ZM6.59998 1.06255C6.55618 1.06881 6.52495 1.11255 6.53121 1.16255L6.79373 2.44384C6.79999 2.48752 6.84992 2.51881 6.89373 2.50629C6.93747 2.50003 6.9687 2.45629 6.96244 2.40629L6.69992 1.125C6.68747 1.08132 6.64373 1.05629 6.59992 1.06255H6.59998Z" fill="white"/>
<path d="M7.36879 1.70002C7.31879 1.70628 7.27505 1.67505 7.26254 1.62505L7.18757 1.05001C7.18132 1.00001 7.2188 0.95627 7.26886 0.950012C7.31879 0.943754 7.36253 0.975045 7.37505 1.02505L7.45001 1.60002C7.45627 1.65002 7.41879 1.69376 7.36879 1.70002V1.70002Z" fill="#F3F3F3"/>
<path d="M7.36857 1.70631C7.31232 1.71256 7.26232 1.67508 7.25606 1.62501L7.1811 1.05004C7.17484 1.00004 7.21232 0.950044 7.26858 0.943785C7.32483 0.937592 7.37483 0.975076 7.38109 1.02508L7.45605 1.60005C7.46231 1.65005 7.42483 1.70005 7.36857 1.70631V1.70631ZM7.27484 0.956302C7.2311 0.96256 7.19355 1.0063 7.19981 1.05004L7.27484 1.62508C7.2811 1.66882 7.32484 1.70005 7.36857 1.69379C7.41231 1.6876 7.44986 1.64379 7.4436 1.60005L7.36857 1.02508C7.36232 0.981334 7.31858 0.950044 7.27484 0.956302V0.956302Z" fill="white"/>
<path d="M8.0438 15.3937C12.1307 15.3937 15.4438 12.0807 15.4438 7.99375C15.4438 3.90684 12.1307 0.59375 8.0438 0.59375C3.95689 0.59375 0.643799 3.90684 0.643799 7.99375C0.643799 12.0807 3.95689 15.3937 8.0438 15.3937Z" fill="url(#paint1_linear)" fill-opacity="0.2"/>
<path d="M13.1688 3.30005L7.20007 7.12508H7.19381V7.13127L7.18755 7.13753L3.46265 13.2813L8.93761 8.87508L8.94387 8.86889V8.86263L13.1689 3.30011L13.1688 3.30005Z" fill="black" fill-opacity="0.05"/>
<path d="M13.0562 2.94385L7.15625 7.13758L8.90625 8.87506L13.0562 2.94385" fill="#CD151E"/>
<path d="M7.16248 7.12513L8.04376 7.99383L13.0562 2.94385L7.16248 7.12513V7.12513Z" fill="#FA5153"/>
<path d="M7.16257 7.12506L8.91257 8.86248L3.01257 13.0563L7.16257 7.125V7.12506Z" fill="#ACACAC"/>
<path d="M3.01257 13.0563L8.0438 7.99377L7.16251 7.125L3.01257 13.0563Z" fill="#EEEEEE"/>
<defs>
<radialGradient id="paint0_radial" cx="0" cy="0" r="1" gradientUnits="userSpaceOnUse" gradientTransform="translate(9.03968 6.37461) scale(9.03274)">
<stop stop-color="#2ABCE1"/>
<stop offset="0.11363" stop-color="#2ABBE1"/>
<stop offset="1" stop-color="#3375F8"/>
</radialGradient>
<linearGradient id="paint1_linear" x1="7.9032" y1="5.87779" x2="4.44932" y2="12.0744" gradientUnits="userSpaceOnUse">
<stop stop-opacity="0"/>
<stop offset="1"/>
</linearGradient>
</defs>
</svg>
