<svg width="24" height="24" viewBox="0 0 24 24" fill="none" xmlns="http://www.w3.org/2000/svg">
<g clip-path="url(#clip0)">
<path opacity="0.75" d="M13.8288 11.5919L14.5183 9.39216L10.8173 10.9285L13.8288 11.5919ZM21.8593 7.43687C19.0399 4.59123 12.2052 5.12369 9.51669 5.78709C6.37429 6.59016 5.53632 8.9819 5.62361 12.8576C5.65852 15.0834 6.62743 17.0562 8.50414 17.7283C12.3274 19.0551 15.6094 18.8718 19.0574 15.5723C17.2941 13.6693 15.8277 13.0059 13.4185 13.1805C11.0792 13.294 9.75237 12.9274 8.09388 11.1118C10.119 9.1652 11.3585 8.22248 13.8026 7.96934C16.5347 7.69001 18.9701 8.84223 20.0263 9.91589C21.0126 10.9285 21.5102 13.2416 21.2745 16.0436C21.0912 18.3132 20.3667 19.6487 18.6995 20.1288C16.5522 20.7922 13.436 21.1152 10.5554 21.0017C7.15989 20.862 5.3792 20.1724 4.88165 19.6487C3.83419 18.479 3.06605 16 2.89147 13.1543C2.71689 10.3087 3.16207 7.62018 4.04368 6.15371C4.91657 4.68724 8.14625 3.6485 12.9035 3.35171C16.8751 3.12476 20.5587 3.42154 20.6024 3.42154L20.358 0.25293C20.358 0.25293 11.8648 1.2393 10.5642 1.35278C7.41303 1.65829 3.17079 2.33915 1.74799 4.73089C-0.792115 8.99935 -0.146178 18.0862 2.92639 21.4905C5.66725 24.5456 15.1992 24.0394 19.4676 22.7562C21.388 22.1801 23.5615 20.6001 23.9368 16.2793C24.1812 13.4337 23.7884 9.40961 21.8593 7.43687ZM13.3225 15.0573L16.3339 15.7207L12.6329 17.257L13.3225 15.0573Z" fill="black"/>
<path d="M13.6539 11.3388L14.3435 9.13913L10.6425 10.6754L13.6539 11.3388ZM21.6845 7.18386C18.8651 4.33825 12.0304 4.86198 9.34188 5.53411C6.19949 6.33716 5.36152 8.72887 5.4488 12.6045C5.48372 14.8304 6.45263 16.8031 8.32933 17.4752C12.1526 18.802 15.4346 18.6187 18.8825 15.3192C17.1193 13.4163 15.6529 12.7529 13.2437 12.9275C10.9044 13.0409 9.57756 12.6743 7.91908 10.8587C9.94418 8.91218 11.1837 7.96946 13.6278 7.71633C16.3599 7.437 18.7953 8.58921 19.8514 9.66286C20.8378 10.6754 21.3354 12.9886 21.0997 15.7905C20.9164 18.06 20.1919 19.3956 18.5247 19.8756C16.3774 20.539 13.2524 20.862 10.3806 20.7485C6.98509 20.6089 5.2044 19.9193 4.70685 19.3956C3.65938 18.2259 2.89124 15.7469 2.71667 12.9013C2.54209 10.0557 2.98726 7.36717 3.86888 5.90072C4.74177 4.43427 7.97145 3.39553 12.7287 3.09875C16.7003 2.8718 20.3839 3.16858 20.4276 3.16858L20.1831 0C20.1831 0 11.69 0.986363 10.3893 1.09984C7.23822 1.39662 2.98726 2.0862 1.57318 4.47791C-0.966919 8.74633 -0.320983 17.8418 2.75158 21.2374C5.49245 24.2925 15.0244 23.7862 19.2928 22.503C21.2132 21.9269 23.3866 20.347 23.762 16.0262C24.0064 13.1806 23.6136 9.15659 21.6845 7.18386ZM13.1477 14.8042L16.1591 15.4676L12.4581 17.0038L13.1477 14.8042Z" fill="#016B6B"/>
</g>
<defs>
<clipPath id="clip0">
<rect width="24" height="23.76" fill="white"/>
</clipPath>
</defs>
</svg>
