<svg width="24" height="24" viewBox="0 0 24 24" fill="none" xmlns="http://www.w3.org/2000/svg">
<g clip-path="url(#clip0)">
<path d="M11.9536 0C5.35266 0 0 5.35172 0 11.9536C0 17.2351 3.42506 21.7158 8.17462 23.2964C8.772 23.407 8.99137 23.0371 8.99137 22.7213C8.99137 22.4363 8.98022 21.4946 8.97516 20.4958C5.64956 21.2189 4.94784 19.0854 4.94784 19.0854C4.40409 17.7037 3.62062 17.3364 3.62062 17.3364C2.53612 16.5945 3.70237 16.6097 3.70237 16.6097C4.90275 16.6941 5.53481 17.8416 5.53481 17.8416C6.60094 19.669 8.33119 19.1407 9.01331 18.8353C9.12056 18.0626 9.43041 17.5354 9.77222 17.2369C7.11722 16.9345 4.32609 15.9096 4.32609 11.3293C4.32609 10.0243 4.79306 8.9579 5.55778 8.12081C5.43366 7.81969 5.02453 6.60394 5.67356 4.95741C5.67356 4.95741 6.67734 4.63612 8.96166 6.18272C9.91509 5.91778 10.9377 5.78503 11.9536 5.78053C12.9695 5.78503 13.9928 5.91778 14.9482 6.18272C17.2297 4.63612 18.2321 4.95741 18.2321 4.95741C18.8827 6.60394 18.4734 7.81969 18.3493 8.12081C19.1157 8.9579 19.5795 10.0242 19.5795 11.3293C19.5795 15.9204 16.7831 16.9314 14.1214 17.2273C14.5501 17.5983 14.9321 18.3258 14.9321 19.4409C14.9321 21.0403 14.9182 22.3276 14.9182 22.7213C14.9182 23.0394 15.1334 23.4122 15.7394 23.2948C20.4863 21.7124 23.9071 17.2333 23.9071 11.9536C23.9071 5.35172 18.5552 0 11.9536 0Z" fill="#161614"/>
<path d="M4.4769 17.0281C4.45065 17.0875 4.35709 17.1053 4.27205 17.0646C4.18534 17.0256 4.13659 16.9446 4.16471 16.885C4.19049 16.8239 4.28405 16.8068 4.37059 16.8479C4.45749 16.8868 4.50699 16.9685 4.4769 17.0281ZM5.06489 17.5528C5.00789 17.6056 4.89643 17.5811 4.82077 17.4975C4.74258 17.4142 4.72796 17.3028 4.7858 17.2491C4.84458 17.1963 4.95267 17.221 5.03105 17.3044C5.10924 17.3887 5.12442 17.4994 5.0648 17.5529L5.06489 17.5528ZM5.4683 18.224C5.39498 18.2749 5.27517 18.2272 5.2012 18.1209C5.12799 18.0147 5.12799 17.8872 5.2028 17.8361C5.27705 17.785 5.39498 17.8309 5.46998 17.9364C5.54311 18.0445 5.54311 18.172 5.4682 18.2241L5.4683 18.224ZM6.15042 19.0015C6.08489 19.0737 5.94539 19.0544 5.8432 18.9557C5.73876 18.8594 5.70961 18.7226 5.77532 18.6503C5.84161 18.5779 5.98195 18.5983 6.08488 18.696C6.18867 18.7922 6.22035 18.93 6.15051 19.0015H6.15042ZM7.03203 19.264C7.00325 19.3575 6.86882 19.4001 6.73344 19.3604C6.59826 19.3194 6.50976 19.2097 6.53704 19.1151C6.56516 19.0209 6.70016 18.9765 6.83657 19.0191C6.97157 19.0599 7.06025 19.1687 7.03213 19.264H7.03203ZM8.03553 19.3753C8.0389 19.4739 7.92406 19.5556 7.78193 19.5574C7.63897 19.5605 7.52337 19.4807 7.52187 19.3838C7.52187 19.2842 7.63409 19.2032 7.77697 19.2009C7.91909 19.1981 8.03553 19.2773 8.03553 19.3753ZM9.02121 19.3375C9.03827 19.4337 8.93946 19.5325 8.79836 19.5587C8.65962 19.584 8.53118 19.5247 8.51346 19.4294C8.49621 19.3307 8.5969 19.232 8.73536 19.2064C8.87674 19.1819 9.00321 19.2397 9.02121 19.3375Z" fill="#161614"/>
</g>
<defs>
<clipPath id="clip0">
<rect width="24" height="23.3472" fill="white"/>
</clipPath>
</defs>
</svg>
