<svg width="600" height="400" viewBox="0 0 600 400" fill="none" xmlns="http://www.w3.org/2000/svg">
<path d="M600 0H0V400H600V0Z" fill="white"/>
<path d="M105 14C105 11.7909 103.209 10 101 10H14C11.7909 10 10 11.7909 10 14V386C10 388.209 11.7909 390 14 390H101C103.209 390 105 388.209 105 386V14Z" fill="#CED4DA"/>
<path d="M590 14C590 11.7909 588.209 10 586 10H119C116.791 10 115 11.7909 115 14V386C115 388.209 116.791 390 119 390H586C588.209 390 590 388.209 590 386V14Z" fill="#F8F9FA"/>
<path d="M28 38C31.3137 38 34 35.3137 34 32C34 28.6863 31.3137 26 28 26C24.6863 26 22 28.6863 22 32C22 35.3137 24.6863 38 28 38Z" fill="#F7F8F9"/>
<path d="M40 32C40 29.7909 41.7909 28 44 28H76C78.2091 28 80 29.7909 80 32C80 34.2091 78.2091 36 76 36H44C41.7909 36 40 34.2091 40 32Z" fill="#F7F8F9"/>
<path d="M28 61C31.3137 61 34 58.3137 34 55C34 51.6863 31.3137 49 28 49C24.6863 49 22 51.6863 22 55C22 58.3137 24.6863 61 28 61Z" fill="#F7F8F9"/>
<path d="M40 55C40 52.7909 41.7909 51 44 51H76C78.2091 51 80 52.7909 80 55C80 57.2091 78.2091 59 76 59H44C41.7909 59 40 57.2091 40 55Z" fill="#F7F8F9"/>
<path d="M28 84C31.3137 84 34 81.3137 34 78C34 74.6863 31.3137 72 28 72C24.6863 72 22 74.6863 22 78C22 81.3137 24.6863 84 28 84Z" fill="#F7F8F9"/>
<path d="M40 78C40 75.791 41.7909 74 44 74H76C78.2091 74 80 75.791 80 78C80 80.209 78.2091 82 76 82H44C41.7909 82 40 80.209 40 78Z" fill="#F7F8F9"/>
<path d="M28 107C31.3137 107 34 104.314 34 101C34 97.6863 31.3137 95 28 95C24.6863 95 22 97.6863 22 101C22 104.314 24.6863 107 28 107Z" fill="#F7F8F9"/>
<path d="M40 101C40 98.791 41.7909 97 44 97H76C78.2091 97 80 98.791 80 101C80 103.209 78.2091 105 76 105H44C41.7909 105 40 103.209 40 101Z" fill="#F7F8F9"/>
<path d="M28 130C31.3137 130 34 127.314 34 124C34 120.686 31.3137 118 28 118C24.6863 118 22 120.686 22 124C22 127.314 24.6863 130 28 130Z" fill="#F7F8F9"/>
<path d="M40 124C40 121.791 41.7909 120 44 120H76C78.2091 120 80 121.791 80 124C80 126.209 78.2091 128 76 128H44C41.7909 128 40 126.209 40 124Z" fill="#F7F8F9"/>
<path d="M28 153C31.3137 153 34 150.314 34 147C34 143.686 31.3137 141 28 141C24.6863 141 22 143.686 22 147C22 150.314 24.6863 153 28 153Z" fill="#F7F8F9"/>
<path d="M28 220C31.3137 220 34 217.314 34 214C34 210.686 31.3137 208 28 208C24.6863 208 22 210.686 22 214C22 217.314 24.6863 220 28 220Z" fill="#F7F8F9"/>
<path d="M40 147C40 144.791 41.7909 143 44 143H76C78.2091 143 80 144.791 80 147C80 149.209 78.2091 151 76 151H44C41.7909 151 40 149.209 40 147Z" fill="#F7F8F9"/>
<path d="M40 214C40 211.791 41.7909 210 44 210H76C78.2091 210 80 211.791 80 214C80 216.209 78.2091 218 76 218H44C41.7909 218 40 216.209 40 214Z" fill="#F7F8F9"/>
<path d="M28 176C31.3137 176 34 173.314 34 170C34 166.686 31.3137 164 28 164C24.6863 164 22 166.686 22 170C22 173.314 24.6863 176 28 176Z" fill="#F7F8F9"/>
<path d="M28 243C31.3137 243 34 240.314 34 237C34 233.686 31.3137 231 28 231C24.6863 231 22 233.686 22 237C22 240.314 24.6863 243 28 243Z" fill="#F7F8F9"/>
<path d="M40 170C40 167.791 41.7909 166 44 166H76C78.2091 166 80 167.791 80 170C80 172.209 78.2091 174 76 174H44C41.7909 174 40 172.209 40 170Z" fill="#F7F8F9"/>
<path d="M40 237C40 234.791 41.7909 233 44 233H76C78.2091 233 80 234.791 80 237C80 239.209 78.2091 241 76 241H44C41.7909 241 40 239.209 40 237Z" fill="#F7F8F9"/>
<path d="M28 199C31.3137 199 34 196.314 34 193C34 189.686 31.3137 187 28 187C24.6863 187 22 189.686 22 193C22 196.314 24.6863 199 28 199Z" fill="#F7F8F9"/>
<path d="M28 266C31.3137 266 34 263.314 34 260C34 256.686 31.3137 254 28 254C24.6863 254 22 256.686 22 260C22 263.314 24.6863 266 28 266Z" fill="#F7F8F9"/>
<path d="M40 193C40 190.791 41.7909 189 44 189H76C78.2091 189 80 190.791 80 193C80 195.209 78.2091 197 76 197H44C41.7909 197 40 195.209 40 193Z" fill="#F7F8F9"/>
<path d="M40 260C40 257.791 41.7909 256 44 256H76C78.2091 256 80 257.791 80 260C80 262.209 78.2091 264 76 264H44C41.7909 264 40 262.209 40 260Z" fill="#F7F8F9"/>
</svg>
