<svg width="600" height="400" viewBox="0 0 600 400" fill="none" xmlns="http://www.w3.org/2000/svg">
<path d="M600 0H0V400H600V0Z" fill="white"/>
<path d="M70 14C70 11.7909 68.2091 10 66 10H14C11.7909 10 10 11.7909 10 14V386C10 388.209 11.7909 390 14 390H66C68.2091 390 70 388.209 70 386V14Z" fill="#CED4DA"/>
<path d="M590 14C590 11.7909 588.209 10 586 10H84C81.7909 10 80 11.7909 80 14V386C80 388.209 81.7909 390 84 390H586C588.209 390 590 388.209 590 386V14Z" fill="#F8F9FA"/>
<path d="M40 40C44.9706 40 49 35.9706 49 31C49 26.0294 44.9706 22 40 22C35.0294 22 31 26.0294 31 31C31 35.9706 35.0294 40 40 40Z" fill="#F7F8F9"/>
<path d="M20 48C20 46.3432 21.7909 45 24 45H56C58.2091 45 60 46.3432 60 48C60 49.6568 58.2091 51 56 51H24C21.7909 51 20 49.6568 20 48Z" fill="#F7F8F9"/>
<path d="M40 87C44.9706 87 49 82.9706 49 78C49 73.0294 44.9706 69 40 69C35.0294 69 31 73.0294 31 78C31 82.9706 35.0294 87 40 87Z" fill="#F7F8F9"/>
<path d="M20 95C20 93.3432 21.7909 92 24 92H56C58.2091 92 60 93.3432 60 95C60 96.6568 58.2091 98 56 98H24C21.7909 98 20 96.6568 20 95Z" fill="#F7F8F9"/>
<path d="M40 130C44.9706 130 49 125.971 49 121C49 116.029 44.9706 112 40 112C35.0294 112 31 116.029 31 121C31 125.971 35.0294 130 40 130Z" fill="#F7F8F9"/>
<path d="M20 138C20 136.343 21.7909 135 24 135H56C58.2091 135 60 136.343 60 138C60 139.657 58.2091 141 56 141H24C21.7909 141 20 139.657 20 138Z" fill="#F7F8F9"/>
<path d="M40 173C44.9706 173 49 168.971 49 164C49 159.029 44.9706 155 40 155C35.0294 155 31 159.029 31 164C31 168.971 35.0294 173 40 173Z" fill="#F7F8F9"/>
<path d="M20 181C20 179.343 21.7909 178 24 178H56C58.2091 178 60 179.343 60 181C60 182.657 58.2091 184 56 184H24C21.7909 184 20 182.657 20 181Z" fill="#F7F8F9"/>
<path d="M40 216C44.9706 216 49 211.971 49 207C49 202.029 44.9706 198 40 198C35.0294 198 31 202.029 31 207C31 211.971 35.0294 216 40 216Z" fill="#F7F8F9"/>
<path d="M20 224C20 222.343 21.7909 221 24 221H56C58.2091 221 60 222.343 60 224C60 225.657 58.2091 227 56 227H24C21.7909 227 20 225.657 20 224Z" fill="#F7F8F9"/>
<path d="M40 259C44.9706 259 49 254.971 49 250C49 245.029 44.9706 241 40 241C35.0294 241 31 245.029 31 250C31 254.971 35.0294 259 40 259Z" fill="#F7F8F9"/>
<path d="M40 302C44.9706 302 49 297.971 49 293C49 288.029 44.9706 284 40 284C35.0294 284 31 288.029 31 293C31 297.971 35.0294 302 40 302Z" fill="#F7F8F9"/>
<path d="M40 345C44.9706 345 49 340.971 49 336C49 331.029 44.9706 327 40 327C35.0294 327 31 331.029 31 336C31 340.971 35.0294 345 40 345Z" fill="#F7F8F9"/>
<path d="M20 267C20 265.343 21.7909 264 24 264H56C58.2091 264 60 265.343 60 267C60 268.657 58.2091 270 56 270H24C21.7909 270 20 268.657 20 267Z" fill="#F7F8F9"/>
<path d="M20 310C20 308.343 21.7909 307 24 307H56C58.2091 307 60 308.343 60 310C60 311.657 58.2091 313 56 313H24C21.7909 313 20 311.657 20 310Z" fill="#F7F8F9"/>
<path d="M20 353C20 351.343 21.7909 350 24 350H56C58.2091 350 60 351.343 60 353C60 354.657 58.2091 356 56 356H24C21.7909 356 20 354.657 20 353Z" fill="#F7F8F9"/>
</svg>
