<svg width="600" height="400" viewBox="0 0 600 400" fill="none" xmlns="http://www.w3.org/2000/svg">
<path d="M600 0H0V400H600V0Z" fill="white"/>
<path d="M49 14C49 11.7909 47.2091 10 45 10H14C11.7909 10 10 11.7909 10 14V386C10 388.209 11.7909 390 14 390H45C47.2091 390 49 388.209 49 386V14Z" fill="#CED4DA"/>
<path d="M590 14C590 11.7909 588.209 10 586 10H63C60.7909 10 59 11.7909 59 14V386C59 388.209 60.7909 390 63 390H586C588.209 390 590 388.209 590 386V14Z" fill="#F8F9FA"/>
<path d="M29 38C32.866 38 36 34.866 36 31C36 27.134 32.866 24 29 24C25.134 24 22 27.134 22 31C22 34.866 25.134 38 29 38Z" fill="#F7F8F9"/>
<path d="M29 76C32.866 76 36 72.866 36 69C36 65.134 32.866 62 29 62C25.134 62 22 65.134 22 69C22 72.866 25.134 76 29 76Z" fill="#F7F8F9"/>
<path d="M29 152C32.866 152 36 148.866 36 145C36 141.134 32.866 138 29 138C25.134 138 22 141.134 22 145C22 148.866 25.134 152 29 152Z" fill="#F7F8F9"/>
<path d="M29 114C32.866 114 36 110.866 36 107C36 103.134 32.866 100 29 100C25.134 100 22 103.134 22 107C22 110.866 25.134 114 29 114Z" fill="#F7F8F9"/>
<path d="M29 190C32.866 190 36 186.866 36 183C36 179.134 32.866 176 29 176C25.134 176 22 179.134 22 183C22 186.866 25.134 190 29 190Z" fill="#F7F8F9"/>
<path d="M29 228C32.866 228 36 224.866 36 221C36 217.134 32.866 214 29 214C25.134 214 22 217.134 22 221C22 224.866 25.134 228 29 228Z" fill="#F7F8F9"/>
<path d="M29 266C32.866 266 36 262.866 36 259C36 255.134 32.866 252 29 252C25.134 252 22 255.134 22 259C22 262.866 25.134 266 29 266Z" fill="#F7F8F9"/>
<path d="M29 304C32.866 304 36 300.866 36 297C36 293.134 32.866 290 29 290C25.134 290 22 293.134 22 297C22 300.866 25.134 304 29 304Z" fill="#F7F8F9"/>
<path d="M29 342C32.866 342 36 338.866 36 335C36 331.134 32.866 328 29 328C25.134 328 22 331.134 22 335C22 338.866 25.134 342 29 342Z" fill="#F7F8F9"/>
</svg>
